<svg width="71" height="86" viewBox="0 0 71 86" fill="none" xmlns="http://www.w3.org/2000/svg">
<path fill-rule="evenodd" clip-rule="evenodd" d="M71 20.0667V65.2167L35.1414 86L0 65.2167V20.0667L35.1414 0L71 20.0667Z" fill="#D0E9FF"/>
<path d="M15.9672 18H27.7402C29.1311 18 30.263 19.1343 30.263 20.5282V22.2137C32.1181 22.2137 33.6267 23.7256 33.6267 25.5847C33.6267 27.4438 32.1181 28.9556 30.263 28.9556V33.1694H23.5355V31.4839C23.5355 30.5543 22.7812 29.7984 21.8537 29.7984C20.9261 29.7984 20.1718 30.5543 20.1718 31.4839V33.1694H15.9672C14.5763 33.1694 13.4444 32.035 13.4444 30.6411V20.5282C13.4444 19.1343 14.5763 18 15.9672 18ZM15.1262 30.6411C15.1262 31.1055 15.503 31.4839 15.9672 31.4839H18.49C18.49 29.6248 19.9986 28.1129 21.8537 28.1129C23.7088 28.1129 25.2174 29.6248 25.2174 31.4839H28.5811V27.2702H30.263C31.1905 27.2702 31.9448 26.5142 31.9448 25.5847C31.9448 24.6551 31.1905 23.8992 30.263 23.8992H28.5811V20.5282C28.5811 20.0639 28.2044 19.6855 27.7402 19.6855H15.9672C15.503 19.6855 15.1262 20.0639 15.1262 20.5282V30.6411Z" fill="#0058AA"/>
<path d="M30.2631 34.8548C32.1182 34.8548 33.6268 36.3667 33.6268 38.2258H36.9905V34.0121H38.6724C39.5999 34.0121 40.3542 33.2562 40.3542 32.3266C40.3542 31.3971 39.5999 30.6411 38.6724 30.6411H36.9905V23.0565H39.245C48.2026 23.0565 55.491 30.3605 55.491 39.3374C55.491 44.2405 53.3188 48.8334 49.5321 51.9381L46.2407 54.6374V56.9221C47.2171 57.271 47.9226 58.198 47.9226 59.2952C47.9226 60.4607 47.1279 61.4349 46.0557 61.7257C46.1726 62.0164 46.2407 62.3325 46.2407 62.6653C46.2407 63.7795 45.5133 64.7166 44.5135 65.0528C44.1653 67.9755 41.6804 70.25 38.6724 70.25C35.6644 70.25 33.1794 67.9755 32.8313 65.0528C31.8314 64.7166 31.104 63.7795 31.104 62.6653C31.104 62.3325 31.1721 62.0164 31.289 61.7248C30.2168 61.4333 29.4221 60.4599 29.4221 59.2944C29.4221 58.1971 30.1277 57.2701 31.104 56.9212V54.6365L27.8126 51.9372C24.0259 48.8334 21.8538 44.2405 21.8538 39.3374V38.2258H26.8994C26.8994 36.3667 28.408 34.8548 30.2631 34.8548ZM39.245 24.7419H38.6724V28.9557C40.5275 28.9557 42.0361 30.4675 42.0361 32.3266C42.0361 34.1857 40.5275 35.6976 38.6724 35.6976V38.2258H42.0361C42.0361 36.3667 43.5447 34.8548 45.3998 34.8548C47.2549 34.8548 48.7635 36.3667 48.7635 38.2258H53.7671C53.1986 30.6951 46.9025 24.7419 39.245 24.7419ZM48.4675 50.6335C51.7144 47.9713 53.6367 44.0896 53.7973 39.9113H47.0817V38.2258C47.0817 37.2963 46.3274 36.5403 45.3998 36.5403C44.4723 36.5403 43.7179 37.2963 43.7179 38.2258V39.9113H38.6724V43.2823C40.5275 43.2823 42.0361 44.7942 42.0361 46.6532C42.0361 48.5123 40.5275 50.0242 38.6724 50.0242V56.7662H44.5589V53.8385L48.4675 50.6335ZM38.6724 68.5645C40.7024 68.5645 42.4011 67.1142 42.7921 65.1936H34.5527C34.9437 67.1142 36.6424 68.5645 38.6724 68.5645ZM33.6268 63.5081H43.7179C44.1821 63.5081 44.5589 63.1297 44.5589 62.6653C44.5589 62.201 44.1821 61.8226 43.7179 61.8226H33.6268C33.1626 61.8226 32.7859 62.201 32.7859 62.6653C32.7859 63.1297 33.1626 63.5081 33.6268 63.5081ZM31.9449 60.1371H33.6268H43.7179H45.3998C45.864 60.1371 46.2407 59.7587 46.2407 59.2944C46.2407 58.83 45.864 58.4516 45.3998 58.4516H31.9449C31.4807 58.4516 31.104 58.83 31.104 59.2944C31.104 59.7587 31.4807 60.1371 31.9449 60.1371ZM28.8772 50.6335L32.7859 53.8385V56.7662H36.9905V48.3387H38.6724C39.5999 48.3387 40.3542 47.5828 40.3542 46.6532C40.3542 45.7237 39.5999 44.9678 38.6724 44.9678H36.9905V39.9113H31.9449V38.2258C31.9449 37.2963 31.1906 36.5403 30.2631 36.5403C29.3355 36.5403 28.5812 37.2963 28.5812 38.2258V39.9113H23.5474C23.708 44.0896 25.6304 47.9713 28.8772 50.6335Z" fill="#0058AA"/>
</svg>
