<svg width="40" height="40" viewBox="0 0 40 40" fill="none" xmlns="http://www.w3.org/2000/svg">
<path d="M22.224 4.50259H19.9775C19.5785 4.50259 19.2539 4.8272 19.2539 5.22627V7.92197C19.2538 8.32095 19.5784 8.64556 19.9775 8.64556H22.224C22.623 8.64556 22.9477 8.32095 22.9477 7.92189V5.22627C22.9477 4.82728 22.623 4.50259 22.224 4.50259ZM21.8047 7.50267H20.3967V5.64549H21.8047V7.50267Z" fill="black"/>
<path d="M26.6908 4.50259H24.4443C24.0453 4.50259 23.7207 4.8272 23.7207 5.22627V7.92197C23.7207 8.32095 24.0452 8.64556 24.4443 8.64556H26.6908C27.0898 8.64556 27.4144 8.32095 27.4144 7.92189V5.22627C27.4144 4.82728 27.0898 4.50259 26.6908 4.50259ZM26.2714 7.50267H24.8635V5.64549H26.2714V7.50267Z" fill="black"/>
<path d="M31.1576 4.50259H28.9111C28.5121 4.50259 28.1875 4.8272 28.1875 5.22627V7.92197C28.1875 8.32095 28.5121 8.64556 28.9111 8.64556H31.1576C31.5566 8.64556 31.8813 8.32095 31.8813 7.92189V5.22627C31.8813 4.82728 31.5566 4.50259 31.1576 4.50259ZM30.7384 7.50267H29.3304V5.64549H30.7384V7.50267Z" fill="black"/>
<path d="M22.224 11.1968H19.9775C19.5785 11.1968 19.2539 11.5214 19.2539 11.9205V14.6162C19.2538 15.0152 19.5784 15.3399 19.9775 15.3399H22.224C22.623 15.3399 22.9477 15.0152 22.9477 14.6162V11.9205C22.9477 11.5215 22.623 11.1968 22.224 11.1968ZM21.8047 14.197H20.3967V12.3399H21.8047V14.197Z" fill="black"/>
<path d="M26.6908 11.1968H24.4443C24.0453 11.1968 23.7207 11.5214 23.7207 11.9205V14.6162C23.7207 15.0152 24.0452 15.3399 24.4443 15.3399H26.6908C27.0898 15.3399 27.4144 15.0152 27.4144 14.6162V11.9205C27.4144 11.5215 27.0898 11.1968 26.6908 11.1968ZM26.2714 14.197H24.8635V12.3399H26.2714V14.197Z" fill="black"/>
<path d="M31.1576 11.1968H28.9111C28.5121 11.1968 28.1875 11.5214 28.1875 11.9205V14.6162C28.1875 15.0152 28.5121 15.3399 28.9111 15.3399H31.1576C31.5566 15.3399 31.8813 15.0152 31.8813 14.6162V11.9205C31.8813 11.5215 31.5566 11.1968 31.1576 11.1968ZM30.7384 14.197H29.3304V12.3399H30.7384V14.197Z" fill="black"/>
<path d="M22.224 17.8908H19.9775C19.5785 17.8908 19.2539 18.2154 19.2539 18.6145V21.3102C19.2538 21.7092 19.5784 22.0339 19.9775 22.0339H22.224C22.623 22.0339 22.9477 21.7092 22.9477 21.3102V18.6145C22.9477 18.2155 22.623 17.8908 22.224 17.8908ZM21.8047 20.891H20.3967V19.0338H21.8047V20.891Z" fill="black"/>
<path d="M26.6908 17.8908H24.4443C24.0453 17.8908 23.7207 18.2154 23.7207 18.6145V21.3102C23.7207 21.7092 24.0452 22.0339 24.4443 22.0339H26.6908C27.0898 22.0339 27.4144 21.7092 27.4144 21.3102V18.6145C27.4144 18.2155 27.0898 17.8908 26.6908 17.8908ZM26.2714 20.891H24.8635V19.0338H26.2714V20.891Z" fill="black"/>
<path d="M31.1576 17.8908H28.9111C28.5121 17.8908 28.1875 18.2154 28.1875 18.6145V21.3102C28.1875 21.7092 28.5121 22.0339 28.9111 22.0339H31.1576C31.5566 22.0339 31.8813 21.7092 31.8813 21.3102V18.6145C31.8813 18.2155 31.5566 17.8908 31.1576 17.8908ZM30.7384 20.891H29.3304V19.0338H30.7384V20.891Z" fill="black"/>
<path d="M31.1576 24.5851H28.9111C28.5121 24.5851 28.1875 24.9097 28.1875 25.3087V28.0044C28.1875 28.4034 28.5121 28.7281 28.9111 28.7281H31.1576C31.5566 28.7281 31.8813 28.4035 31.8813 28.0044V25.3087C31.8813 24.9097 31.5566 24.5851 31.1576 24.5851ZM30.7384 27.5851H29.3304V25.728H30.7384V27.5851Z" fill="black"/>
<path d="M38.6384 27.1319C37.9061 26.0556 36.4314 25.7707 35.3518 26.4963L33.7806 27.5477V2.96586H33.8945C34.3082 2.96586 34.6448 2.6293 34.6448 2.21555V0.750313C34.6448 0.336563 34.3082 0 33.8945 0H30.2454C29.9298 0 29.674 0.255859 29.674 0.571406C29.674 0.886953 29.9299 1.14281 30.2454 1.14281H33.5019V1.82289H17.4574V1.14281H26.6671C26.9827 1.14281 27.2385 0.886953 27.2385 0.571406C27.2385 0.255859 26.9826 0 26.667 0H17.0648C16.6511 0 16.3145 0.336563 16.3145 0.750313V2.21555C16.3145 2.6293 16.6511 2.96586 17.0648 2.96586H17.355V10.3058H16.1816V8.89531C16.1816 8.40422 15.7821 8.00469 15.2911 8.00469H10.9764C10.4853 8.00469 10.0857 8.40422 10.0857 8.89531V10.3057H9.26465C8.75434 10.3057 8.33918 10.7209 8.33918 11.2312V24.3363C8.0973 24.3209 7.85473 24.3126 7.6116 24.3126H6.71098V24.0155C6.71098 22.9069 5.80902 22.0049 4.70027 22.0049H2.96285C1.85418 22.0049 0.952148 22.9069 0.952148 24.0155V32.1757C0.952148 32.4913 1.20801 32.7471 1.52355 32.7471C1.8391 32.7471 2.09496 32.4912 2.09496 32.1757V24.0155C2.09496 23.5371 2.48426 23.1478 2.96277 23.1478H4.70019C5.17871 23.1478 5.56801 23.5371 5.56801 24.0155V36.8731C5.56801 37.3516 5.17871 37.7409 4.70019 37.7409H2.96285C2.48434 37.7409 2.09504 37.3516 2.09504 36.8731V35.752C2.09504 35.4363 1.83918 35.1805 1.52363 35.1805C1.20809 35.1805 0.952227 35.4364 0.952227 35.752V36.8731C0.952227 37.9818 1.85418 38.8838 2.96293 38.8838H4.70035C5.80902 38.8838 6.71105 37.9817 6.71105 36.8731V36.8405L14.6238 39.837C14.6393 39.8428 14.655 39.848 14.6709 39.8525C15.0186 39.9507 15.3661 40 15.7104 40C15.8976 40 16.0839 39.9854 16.2687 39.9562C16.2689 39.9562 16.2693 39.9562 16.2698 39.9561L27.9496 38.2725C27.9525 38.2721 27.9553 38.2716 27.9582 38.2712C28.9566 38.1117 29.8984 37.6898 30.6819 37.0508C30.689 37.045 30.6961 37.039 30.7028 37.0328L38.2519 30.2432C39.1415 29.4531 39.3077 28.1156 38.6384 27.1319ZM18.4978 2.96586H32.6378V28.3127L27.8832 31.4946L26.2892 31.4052L26.2486 30.997C26.2188 30.6973 26.1516 30.4089 26.0516 30.1368C26.0182 30.0461 25.9813 29.9572 25.9409 29.8702C25.8802 29.7398 25.8118 29.6139 25.7361 29.493C25.5571 29.2073 25.3375 28.9498 25.0852 28.7283H26.6911C27.0901 28.7283 27.4147 28.4037 27.4147 28.0046V25.3089C27.4147 24.9099 27.0901 24.5853 26.6911 24.5853H24.4446C24.0457 24.5853 23.7211 24.9099 23.7211 25.3089V27.9918C23.5767 27.952 23.4285 27.9208 23.2768 27.8993C23.272 27.8986 23.2671 27.898 23.2621 27.8974L22.9481 27.8612V25.3088C22.9481 24.9098 22.6235 24.5852 22.2244 24.5852H19.9779C19.5789 24.5852 19.2543 24.9098 19.2543 25.3088V27.436L18.4978 27.349V2.96586ZM24.8638 27.5854V25.7283H26.2717V27.5854H24.8638ZM21.8051 25.7282V27.5854H20.5507L20.3971 27.5677V25.7282H21.8051ZM11.2286 9.14758H15.0387V10.3057H11.2286V9.14758ZM9.48191 11.4486H17.355V13.2356H10.9014C10.5319 13.2356 10.2314 13.5362 10.2314 13.9056V15.631C10.2314 16.0005 10.5319 16.301 10.9014 16.301H17.355V17.9087H10.9014C10.5319 17.9087 10.2314 18.2092 10.2314 18.5787V20.304C10.2314 20.6734 10.5319 20.974 10.9014 20.974H17.355V22.5816H10.9014C10.5319 22.5816 10.2314 22.8822 10.2314 23.2516V24.6159C10.1343 24.5934 10.0369 24.5723 9.9391 24.5521C9.89301 24.5426 9.84691 24.5335 9.80066 24.5245C9.7466 24.5141 9.6923 24.5042 9.63801 24.4945C9.58598 24.4852 9.5341 24.4752 9.48191 24.4666V11.4486ZM17.355 14.3785V15.1581H11.3743V14.3785H17.355ZM17.355 19.0515V19.8311H11.3743V19.0515H17.355ZM11.3743 24.5041V23.7245H17.355V24.5041H11.3743ZM17.355 25.647V27.2174L17.1789 27.1971C16.8097 27.1446 16.446 27.0722 16.0879 26.9815C15.3938 26.8056 14.7218 26.5591 14.0776 26.2424C13.992 26.2003 13.9071 26.1567 13.8225 26.1121C13.6843 26.0394 13.5475 25.9638 13.4121 25.8846C13.3124 25.8263 13.2118 25.7702 13.1107 25.715C13.0889 25.703 13.067 25.6912 13.045 25.6795C13.025 25.6688 13.005 25.6577 12.9849 25.647H17.355ZM37.4903 29.391L29.9492 36.1734C29.3247 36.6797 28.5758 37.0144 27.782 37.1419L16.1021 38.8255C16.0996 38.8259 16.0889 38.8275 16.0864 38.8279C15.737 38.8831 15.373 38.8599 15.0043 38.759L6.71098 35.6184V25.4555H7.61152C8.0259 25.4555 8.43863 25.4819 8.84793 25.5312C8.93105 25.5412 9.01387 25.5523 9.09652 25.5642C9.10855 25.5659 9.12051 25.5678 9.13246 25.5696C9.34129 25.6005 9.54824 25.6381 9.75348 25.6812C9.8173 25.6948 9.88121 25.7084 9.9448 25.723C9.9766 25.7304 10.0082 25.7381 10.04 25.7457C10.1229 25.7657 10.2056 25.7865 10.288 25.8086C10.3029 25.8126 10.3178 25.8164 10.3326 25.8205C10.9782 25.9965 11.6068 26.2352 12.2087 26.5337C12.2267 26.5426 12.2446 26.5516 12.2625 26.5607C12.339 26.5992 12.415 26.6389 12.4907 26.6793C12.5137 26.6916 12.5368 26.7037 12.5598 26.7162C12.6508 26.7659 12.7414 26.8165 12.831 26.8689C12.8323 26.8697 12.8336 26.8704 12.835 26.8712C13.0778 27.0132 13.3247 27.1459 13.5754 27.2691C14.6617 27.803 15.8189 28.1591 17.026 28.3298C17.0309 28.3305 17.0357 28.3312 17.0407 28.3317L17.8611 28.4262L18.5292 28.5031L20.07 28.6805L20.4524 28.7246C20.4525 28.7246 20.4525 28.7246 20.4526 28.7246L23.1234 29.0321C24.1878 29.1859 25.0047 30.0395 25.1112 31.1102L25.1311 31.3094L14.42 30.2655C14.105 30.2348 13.8264 30.4647 13.7958 30.7788C13.7653 31.093 13.995 31.3724 14.3092 31.403L25.664 32.5098C25.6878 32.5142 25.7121 32.5177 25.7368 32.5191L28.01 32.6466C28.0207 32.6473 28.0314 32.6475 28.0421 32.6475C28.0534 32.6475 28.0645 32.6457 28.0758 32.645C28.0888 32.6442 28.1017 32.6437 28.1145 32.6421C28.1309 32.64 28.147 32.6364 28.1632 32.6329C28.1758 32.6302 28.1886 32.628 28.2009 32.6244C28.2181 32.6194 28.2347 32.6127 28.2514 32.606C28.2619 32.6019 28.2727 32.5986 28.2829 32.5938C28.3095 32.5815 28.3353 32.5673 28.3599 32.5509L33.527 29.0928L33.5271 29.0927L35.9883 27.4455C36.5487 27.069 37.3137 27.2167 37.6935 27.7749C38.0407 28.2851 37.9545 28.9788 37.4903 29.391Z" fill="black"/>
</svg>
