<svg width="71" height="86" viewBox="0 0 71 86" fill="none" xmlns="http://www.w3.org/2000/svg">
<path fill-rule="evenodd" clip-rule="evenodd" d="M71 20.0667V65.2167L35.1414 86L0 65.2167V20.0667L35.1414 0L71 20.0667Z" fill="#D0E9FF"/>
<path d="M18.8216 26.1357L18.9601 26.1931L18.8216 26.1357C18.8652 26.0303 18.9292 25.9345 19.0099 25.8538L24.7593 20.1044C24.8399 20.0237 24.9357 19.9598 25.0411 19.9161C25.1465 19.8725 25.2595 19.85 25.3735 19.85H51.2813C51.5117 19.85 51.7327 19.9415 51.8956 20.1044C52.0585 20.2673 52.15 20.4883 52.15 20.7187V63.8393C52.15 64.0697 52.0585 64.2906 51.8956 64.4535C51.7327 64.6164 51.5117 64.708 51.2813 64.708H19.6241C19.3937 64.708 19.1728 64.6164 19.0099 64.4535C18.847 64.2906 18.7554 64.0697 18.7554 63.8393V62.5085C16.6158 62.2931 14.6276 61.3 13.1696 59.715C11.6804 58.0962 10.8527 55.9776 10.85 53.778V53.7776C10.8527 51.578 11.6804 49.4594 13.1696 47.8406C14.6276 46.2556 16.6158 45.2625 18.7554 45.0471V26.4681C18.7554 26.354 18.7779 26.2411 18.8216 26.1357ZM24.5049 25.5994V22.8158L21.7212 25.5994H24.5049ZM50.4126 62.9706V21.5874H26.2422V26.4681C26.2422 26.6985 26.1507 26.9194 25.9878 27.0823C25.8249 27.2452 25.6039 27.3368 25.3735 27.3368H20.4928V45.047C22.633 45.2605 24.6222 46.253 26.0802 47.8385C27.5695 49.4579 28.396 51.5777 28.396 53.7778C28.396 55.9779 27.5695 58.0977 26.0802 59.7171C24.6222 61.3026 22.633 62.2952 20.4928 62.5086V62.9706H50.4126ZM19.6243 60.8146C21.016 60.8145 22.3764 60.4019 23.5335 59.6287C24.6907 58.8555 25.5927 57.7565 26.1252 56.4707C26.6578 55.1849 26.7972 53.77 26.5257 52.405C26.2542 51.04 25.584 49.7862 24.5999 48.8021C23.6158 47.818 22.3619 47.1478 20.9969 46.8763C19.6319 46.6047 18.2171 46.7441 16.9313 47.2767C15.6455 47.8093 14.5465 48.7112 13.7733 49.8684C13.0001 51.0255 12.5874 52.386 12.5874 53.7776C12.5895 55.6433 13.3315 57.4319 14.6508 58.7512C15.97 60.0704 17.7586 60.8125 19.6243 60.8146Z" fill="#0058AA" stroke="#0058AA" stroke-width="0.3"/>
<path d="M19.7747 55.5128L17.2321 51.0395L17.2221 51.0218L17.2077 51.0075C17.1271 50.9269 17.0313 50.8629 16.9259 50.8192C16.8205 50.7755 16.7076 50.7531 16.5935 50.7531C16.4794 50.7531 16.3664 50.7755 16.261 50.8192C16.1556 50.8629 16.0599 50.9269 15.9792 51.0075M19.7747 55.5128L15.9792 51.0075M19.7747 55.5128L21.7485 53.7678L21.7588 53.7587L21.7707 53.7516C21.8685 53.6929 21.9769 53.6541 22.0897 53.6373C22.2026 53.6205 22.3176 53.6261 22.4283 53.6537C22.539 53.6814 22.6431 53.7306 22.7348 53.7985C22.8264 53.8664 22.9038 53.9517 22.9625 54.0496C23.0212 54.1474 23.06 54.2558 23.0768 54.3686C23.0936 54.4815 23.088 54.5965 23.0603 54.7072C23.0327 54.8179 22.9835 54.922 22.9156 55.0136C22.85 55.1021 22.7683 55.1772 22.6748 55.2351L20.0899 57.3841L20.081 57.3915L20.0712 57.3974C19.9051 57.4971 19.7104 57.5385 19.5182 57.5148C19.3259 57.4912 19.147 57.404 19.01 57.2671L18.997 57.2541L18.9875 57.2384L15.9658 52.2226M19.7747 55.5128L15.9658 52.2226M15.9792 51.0075C15.8985 51.0882 15.8345 51.184 15.7908 51.2894C15.7471 51.3948 15.7246 51.5078 15.7246 51.6219C15.7246 51.736 15.7471 51.849 15.7908 51.9545C15.832 52.054 15.8914 52.1449 15.9658 52.2226M15.9792 51.0075L15.9658 52.2226" fill="#0058AA" stroke="#0058AA" stroke-width="0.3"/>
<rect width="22.0915" height="2.20915" transform="matrix(-1 0 0 1 46.5959 31.0458)" fill="#0058AA"/>
<rect width="22.0915" height="2.20915" transform="matrix(-1 0 0 1 46.5959 37.6733)" fill="#0058AA"/>
<rect width="16.2005" height="2.20915" transform="matrix(-1 0 0 1 46.5959 44.3007)" fill="#0058AA"/>
</svg>
