<svg width="30" height="30" viewBox="0 0 30 30" fill="none" xmlns="http://www.w3.org/2000/svg">
<path fill-rule="evenodd" clip-rule="evenodd" d="M30 0H0V30H30V0ZM12.3295 15.5C12.3295 13.7556 13.753 12.332 15.4974 12.332C17.2418 12.332 18.6654 13.7556 18.6654 15.5C18.6654 17.2444 17.2418 18.668 15.4974 18.668C13.753 18.668 12.3295 17.2444 12.3295 15.5ZM24.9993 15.0201C24.9991 15.1799 24.9989 15.3399 24.9989 15.5C24.9989 15.6791 24.9992 15.8579 24.9995 16.0366C25.0011 17.1669 25.0028 18.2906 24.9371 19.4214C24.8635 20.9424 24.5189 22.29 23.4043 23.4046C22.292 24.5168 20.9421 24.8638 19.4211 24.9375C18.2715 25.0022 17.1291 25.0009 15.9796 24.9996C15.8198 24.9995 15.6599 24.9993 15.4998 24.9993C15.34 24.9993 15.1804 24.9995 15.0209 24.9996C13.8729 25.0009 12.7303 25.0022 11.5785 24.9375C10.0575 24.8638 8.70999 24.5192 7.59538 23.4046C6.48315 22.2923 6.13617 20.9424 6.0625 19.4214C5.99781 18.2717 5.99908 17.1274 6.00035 15.979C6.00053 15.8194 6.00071 15.6598 6.00071 15.5C6.00071 15.3402 6.00053 15.1805 6.00035 15.021C5.99908 13.873 5.99781 12.7304 6.0625 11.5786C6.13617 10.0576 6.48077 8.71004 7.59538 7.59541C8.70761 6.48316 10.0575 6.13617 11.5785 6.0625C12.7282 5.99782 13.8705 5.99908 15.02 6.00035C15.1798 6.00053 15.3397 6.00071 15.4998 6.00071C15.6596 6.00071 15.8193 6.00053 15.9788 6.00035C17.1268 5.99908 18.2694 5.99781 19.4211 6.0625C20.9421 6.13617 22.2897 6.48078 23.4043 7.59541C24.5165 8.70766 24.8635 10.0576 24.9371 11.5786C25.0018 12.7283 25.0006 13.8706 24.9993 15.0201ZM10.6231 15.5C10.6231 18.1974 12.8 20.3744 15.4974 20.3744C18.1948 20.3744 20.3718 18.1974 20.3718 15.5C20.3718 12.8026 18.1948 10.6256 15.4974 10.6256C12.8 10.6256 10.6231 12.8026 10.6231 15.5ZM19.433 10.4259C19.433 11.0557 19.9416 11.5643 20.5714 11.5643C20.721 11.5645 20.8691 11.5352 21.0073 11.4781C21.1455 11.4209 21.271 11.3371 21.3768 11.2313C21.4825 11.1256 21.5664 11 21.6235 10.8618C21.6806 10.7236 21.71 10.5755 21.7098 10.4259C21.7098 9.79615 21.2012 9.28755 20.5714 9.28755C19.9416 9.28755 19.433 9.79615 19.433 10.4259Z" fill="white"/>
</svg>
