<svg width="198" height="47" viewBox="0 0 198 47" fill="none" xmlns="http://www.w3.org/2000/svg">
<path d="M46.4926 36.6567C45.6946 36.6567 45.0205 36.3851 44.4702 35.8418C43.9199 35.2986 43.6448 34.6345 43.6448 33.8496C43.6448 33.0646 43.9212 32.4045 44.4741 31.869C45.027 31.3336 45.7103 31.0659 46.5239 31.0659C47.2959 31.0659 47.9896 31.3518 48.6051 31.9236L48.0652 32.5942C47.601 32.1263 47.0925 31.8924 46.5396 31.8924C45.9867 31.8924 45.5225 32.0744 45.1469 32.4382C44.7714 32.8021 44.5836 33.27 44.5836 33.8418C44.5836 34.0913 44.628 34.333 44.7166 34.567C44.8053 34.7983 44.9331 35.0062 45.1 35.1907C45.2695 35.3753 45.4742 35.5221 45.7142 35.6313C45.9567 35.7379 46.2318 35.7912 46.5396 35.7912C47.0872 35.7912 47.5958 35.5728 48.0652 35.1362L48.6129 35.7444C47.9818 36.3526 47.275 36.6567 46.4926 36.6567Z" fill="white"/>
<path d="M60.0248 36.6567C59.2059 36.6567 58.5174 36.3851 57.9593 35.8418C57.4012 35.2986 57.1222 34.6345 57.1222 33.8496C57.1222 33.0594 57.3999 32.398 57.9554 31.8651C58.5109 31.3323 59.2007 31.0659 60.0248 31.0659C60.8489 31.0659 61.5387 31.3349 62.0942 31.8729C62.6497 32.411 62.9275 33.0698 62.9275 33.8496C62.9275 34.6345 62.6484 35.2986 62.0903 35.8418C61.5322 36.3851 60.8437 36.6567 60.0248 36.6567ZM60.0327 35.8223C60.2726 35.8223 60.5086 35.7795 60.7407 35.6937C60.9728 35.6079 61.1814 35.4819 61.3666 35.3155C61.5544 35.1492 61.703 34.9438 61.8126 34.6995C61.9247 34.4526 61.9808 34.1693 61.9808 33.8496C61.9808 33.2882 61.7878 32.8229 61.4018 32.4538C61.0158 32.0848 60.5595 31.9002 60.0327 31.9002C59.5059 31.9002 59.0456 32.0835 58.6518 32.4499C58.258 32.8164 58.0611 33.283 58.0611 33.8496C58.0611 34.4162 58.2593 34.8866 58.6557 35.2609C59.0521 35.6352 59.5111 35.8223 60.0327 35.8223Z" fill="white"/>
<path d="M76.7957 36.5865H75.8881L72.9699 32.6566V36.5865H72.0467V31.1283H72.9542L75.8881 35.0738V31.1283H76.7957V36.5865Z" fill="white"/>
<path d="M88.1011 36.6411C87.2196 36.6411 86.4737 36.35 85.8634 35.7678L86.2625 34.9724C86.8884 35.513 87.5064 35.7834 88.1167 35.7834C88.4662 35.7834 88.7244 35.7171 88.8913 35.5845C89.0582 35.452 89.1416 35.2895 89.1416 35.0972C89.1416 34.8321 89.019 34.6345 88.7739 34.5046C88.6539 34.4396 88.5288 34.3837 88.3984 34.3369C88.268 34.2901 88.1089 34.2421 87.9211 34.1927C87.4308 34.0523 87.0918 33.925 86.904 33.8106C86.6432 33.6494 86.4685 33.4961 86.3798 33.3505C86.2494 33.1322 86.1842 32.8775 86.1842 32.5864C86.1842 32.0978 86.3746 31.7196 86.7554 31.4519C87.1361 31.1841 87.6108 31.0503 88.1793 31.0503C88.9147 31.0503 89.5537 31.24 90.0961 31.6195L89.7128 32.4304C89.1234 32.0926 88.5887 31.9236 88.1089 31.9236C87.8533 31.9236 87.6408 31.9691 87.4712 32.0601C87.3017 32.151 87.217 32.3005 87.217 32.5084C87.217 32.7164 87.3095 32.8905 87.4947 33.0308C87.6799 33.1686 87.9889 33.2934 88.4218 33.4051C89.053 33.5715 89.5119 33.7898 89.7988 34.0601C90.0179 34.2784 90.1405 34.6085 90.1665 35.0504C90.1665 35.4039 90.074 35.6976 89.8888 35.9315C89.6802 36.1836 89.4181 36.3656 89.1025 36.4773C88.7896 36.5865 88.4557 36.6411 88.1011 36.6411Z" fill="white"/>
<path d="M101.386 36.5865H100.463V31.9548H98.7342V31.1283H103.123V31.9548H101.386V36.5865Z" fill="white"/>
<path d="M116.573 36.5865H115.525L114.523 34.9334C114.471 34.9386 113.955 34.9412 112.974 34.9412V36.5865H112.051V31.1283H114.273C114.675 31.1283 115.042 31.1893 115.376 31.3115C115.713 31.4337 115.984 31.6351 116.19 31.9158C116.383 32.1887 116.479 32.5474 116.479 32.9919C116.479 33.8704 116.101 34.4604 115.345 34.7619L116.573 36.5865ZM114.273 34.1147C115.16 34.1147 115.603 33.7482 115.603 33.0153C115.603 32.3083 115.16 31.9548 114.273 31.9548H112.974V34.1147H114.273Z" fill="white"/>
<path d="M128.103 36.6567C127.568 36.6567 127.126 36.5553 126.777 36.3526C126.427 36.1498 126.165 35.8756 125.99 35.5299C125.818 35.1817 125.732 34.7879 125.732 34.3486V31.1283H126.655V34.3486C126.655 34.8529 126.795 35.2245 127.074 35.4637C127.353 35.7028 127.696 35.8223 128.103 35.8223C128.504 35.8223 128.842 35.7028 129.116 35.4637C129.39 35.2245 129.527 34.8529 129.527 34.3486V31.1283H130.45V34.3486C130.45 34.7697 130.368 35.1557 130.204 35.5065C130.039 35.8574 129.776 36.1407 129.413 36.3565C129.066 36.5566 128.63 36.6567 128.103 36.6567Z" fill="white"/>
<path d="M142.309 36.6567C141.511 36.6567 140.837 36.3851 140.287 35.8418C139.736 35.2986 139.461 34.6345 139.461 33.8496C139.461 33.0646 139.738 32.4045 140.291 31.869C140.844 31.3336 141.527 31.0659 142.341 31.0659C143.112 31.0659 143.806 31.3518 144.422 31.9236L143.882 32.5942C143.418 32.1263 142.909 31.8924 142.356 31.8924C141.803 31.8924 141.339 32.0744 140.964 32.4382C140.588 32.8021 140.4 33.27 140.4 33.8418C140.4 34.0913 140.445 34.333 140.533 34.567C140.622 34.7983 140.75 35.0062 140.917 35.1907C141.086 35.3753 141.291 35.5221 141.531 35.6313C141.773 35.7379 142.048 35.7912 142.356 35.7912C142.904 35.7912 143.412 35.5728 143.882 35.1362L144.429 35.7444C143.798 36.3526 143.092 36.6567 142.309 36.6567Z" fill="white"/>
<path d="M155.51 36.5865H154.587V31.9548H152.858V31.1283H157.247V31.9548H155.51V36.5865Z" fill="white"/>
<path d="M167.098 36.5865H166.175V31.1283H167.098V36.5865Z" fill="white"/>
<path d="M179.121 36.6567C178.302 36.6567 177.614 36.3851 177.056 35.8418C176.498 35.2986 176.219 34.6345 176.219 33.8496C176.219 33.0594 176.496 32.398 177.052 31.8651C177.607 31.3323 178.297 31.0659 179.121 31.0659C179.945 31.0659 180.635 31.3349 181.191 31.8729C181.746 32.411 182.024 33.0698 182.024 33.8496C182.024 34.6345 181.745 35.2986 181.187 35.8418C180.629 36.3851 179.94 36.6567 179.121 36.6567ZM179.129 35.8223C179.369 35.8223 179.605 35.7795 179.837 35.6937C180.069 35.6079 180.278 35.4819 180.463 35.3155C180.651 35.1492 180.799 34.9438 180.909 34.6995C181.021 34.4526 181.077 34.1693 181.077 33.8496C181.077 33.2882 180.884 32.8229 180.498 32.4538C180.112 32.0848 179.656 31.9002 179.129 31.9002C178.602 31.9002 178.142 32.0835 177.748 32.4499C177.354 32.8164 177.157 33.283 177.157 33.8496C177.157 34.4162 177.356 34.8866 177.752 35.2609C178.148 35.6352 178.607 35.8223 179.129 35.8223Z" fill="white"/>
<path d="M195.892 36.5865H194.985L192.066 32.6566V36.5865H191.143V31.1283H192.051L194.985 35.0738V31.1283H195.892V36.5865Z" fill="white"/>
<path d="M54.9004 26.3885H51.6199L46.9529 20.3552V26.3885H43.385V14.5748H46.6655L51.3494 20.6417V14.5748H54.9004V26.3885Z" fill="white"/>
<path d="M68.9733 26.3885H58.7938V14.5748H68.8212V17.5409H62.7168V18.9902H68.2631V21.9562H62.7168V23.4224H68.9733V26.3885Z" fill="white"/>
<path d="M87.3612 26.3885H83.3368L81.5613 19.3272L79.7351 26.3885H75.7106L71.7369 14.5748H75.9304L77.8412 22.327L79.7351 14.5748H83.5566L85.4843 22.327L87.3612 14.5748H91.3688L87.3612 26.3885Z" fill="white"/>
<path d="M113.117 26.3885H109.194V22.1248H105.525V26.3885H101.602V14.5748H105.525V19.1587H109.194V14.5748H113.117V26.3885Z" fill="white"/>
<path d="M122.929 26.6581C121.058 26.6581 119.505 26.0767 118.271 24.9139C117.036 23.751 116.419 22.2652 116.419 20.4564C116.419 18.67 117.033 17.201 118.262 16.0494C119.491 14.8978 121.047 14.322 122.929 14.322C124.812 14.322 126.367 14.9006 127.596 16.0578C128.825 17.215 129.439 18.6812 129.439 20.4564C129.439 22.2652 128.825 23.751 127.596 24.9139C126.367 26.0767 124.812 26.6581 122.929 26.6581ZM122.98 23.4056C123.611 23.4056 124.175 23.1528 124.671 22.6472C125.167 22.1416 125.415 21.417 125.415 20.4732C125.415 19.5744 125.17 18.8666 124.679 18.3498C124.189 17.833 123.622 17.5746 122.98 17.5746C122.326 17.5746 121.74 17.8302 121.221 18.3414C120.703 18.8526 120.443 19.5632 120.443 20.4732C120.443 21.372 120.703 22.0854 121.221 22.6135C121.74 23.1415 122.326 23.4056 122.98 23.4056Z" fill="white"/>
<path d="M143.978 26.3885H139.548L138.127 23.3213H136.656V26.3885H132.733V14.5748H138.466C139.413 14.5748 140.269 14.7181 141.036 15.0046C141.808 15.291 142.422 15.7573 142.879 16.4033C143.307 17.0269 143.522 17.8274 143.522 18.8048C143.522 20.5238 142.896 21.7709 141.645 22.5461L143.978 26.3885ZM138.466 20.3552C139.311 20.3552 139.756 19.8778 139.801 18.9228C139.801 18.0464 139.356 17.5858 138.466 17.5409H136.656V20.3552H138.466Z" fill="white"/>
<path d="M151.107 26.3885H147.184V14.5748H151.107V26.3885Z" fill="white"/>
<path d="M165.363 26.3885H154.49V23.9448L160.019 17.5746H154.693V14.5748H165.244V17.0184L159.715 23.3887H165.363V26.3885Z" fill="white"/>
<path d="M174.656 26.6581C172.785 26.6581 171.232 26.0767 169.998 24.9139C168.763 23.751 168.146 22.2652 168.146 20.4564C168.146 18.67 168.761 17.201 169.989 16.0494C171.218 14.8978 172.774 14.322 174.656 14.322C176.539 14.322 178.095 14.9006 179.323 16.0578C180.552 17.215 181.167 18.6812 181.167 20.4564C181.167 22.2652 180.552 23.751 179.323 24.9139C178.095 26.0767 176.539 26.6581 174.656 26.6581ZM174.707 23.4056C175.338 23.4056 175.902 23.1528 176.398 22.6472C176.894 22.1416 177.142 21.417 177.142 20.4732C177.142 19.5744 176.897 18.8666 176.406 18.3498C175.916 17.833 175.35 17.5746 174.707 17.5746C174.053 17.5746 173.467 17.8302 172.949 18.3414C172.43 18.8526 172.171 19.5632 172.171 20.4732C172.171 21.372 172.43 22.0854 172.949 22.6135C173.467 23.1415 174.053 23.4056 174.707 23.4056Z" fill="white"/>
<path d="M195.976 26.3885H192.696L188.028 20.3552V26.3885H184.461V14.5748H187.741L192.425 20.6417V14.5748H195.976V26.3885Z" fill="white"/>
<path fill-rule="evenodd" clip-rule="evenodd" d="M26.5527 12.22L20.0685 8.88647L17.822 16.3604C17.6875 16.8076 18.174 17.1868 18.5762 16.9483L26.5527 12.22ZM5.55444 39.4498L9.86797 41.9796L9.91897 35.2161C9.92183 34.8374 9.7158 34.488 9.38308 34.3072L6.31215 32.6383C5.97043 32.4526 5.55444 32.7 5.55444 33.0889V39.4498ZM16.6523 45.9585L16.723 45.9999L27.3648 39.6308L16.6503 45.779L16.6523 45.9585ZM33.0395 29.201L29.4174 30.9352C29.0612 31.1057 28.8346 31.4654 28.8346 31.8603V32.8002C28.8346 33.2588 28.5896 33.6826 28.192 33.9114L23.4737 36.627C22.7899 37.0205 21.9364 36.527 21.9364 35.738V29.6289C21.9364 28.8274 22.3522 28.0833 23.0349 27.6633L28.053 24.576C28.3947 24.3657 28.8346 24.6116 28.8346 25.0128V26.6506C28.8346 27.0406 29.2527 27.2879 29.5945 27.1L33.0395 25.2061V29.201ZM9.79062 21.3682L9.78945 21.371L9.79068 21.3717L9.9101 28.6773C9.91632 29.0577 9.5207 29.3122 9.1771 29.1488L6.13966 27.7045C5.7822 27.5345 5.55444 27.174 5.55444 26.7782V18.8511L11.2107 15.6791C11.6376 15.4396 12.1265 15.8762 11.9351 16.3261L9.81382 21.3137L9.78949 21.2992L9.79062 21.3682Z" fill="#0058AA"/>
<path fill-rule="evenodd" clip-rule="evenodd" d="M0 15.3851V36.4561L16.723 46.4899L33.1115 36.4561V15.3851L16.723 6.02026L0 15.3851ZM1.33784 16.9679V35.6986L16.0541 44.5283V25.7976L1.33784 16.9679ZM17.3919 25.7937V44.5117L31.7736 35.7065V16.9885L17.3919 25.7937ZM31.1471 15.8035L16.7163 7.55732L1.99432 15.8016L16.7195 24.6367L31.1471 15.8035Z" fill="#0058AA"/>
</svg>
