<svg width="40" height="40" viewBox="0 0 40 40" fill="none" xmlns="http://www.w3.org/2000/svg">
<path fill-rule="evenodd" clip-rule="evenodd" d="M3.19917 11.6226C2.92018 11.7021 2.65288 11.4121 2.60215 10.9749C2.55143 10.5377 2.77209 10.1459 3.05382 10.0831C6.87121 9.23199 10.1667 8.72845 13.2824 8.43062C13.3129 8.42178 13.3443 8.41716 13.3764 8.41716C13.3871 8.41716 13.3978 8.41767 13.4083 8.41868C17.7097 8.01452 21.6763 7.99995 26.2128 8C26.9414 8.00001 26.8349 9.02925 26.2128 9.02924C25.5219 9.02924 24.833 9.03247 24.1458 9.03987C24.1544 9.09833 24.159 9.15922 24.159 9.22178V10.0997C24.8835 10.0515 25.572 10.0262 26.2128 10.0262C26.8288 10.0262 26.9456 11.0676 26.2128 11.0676C22.6558 11.0676 17.8614 12.0813 13.3229 13.2833C11.0551 13.884 8.62966 14.935 6.92778 15.6792C6.07664 16.0514 5.3361 16.432 4.73494 16.8131C4.12634 17.1988 3.69108 17.5664 3.42809 17.8961C2.47167 19.0951 2.0608 20.7413 2 22C1.8359 25.3976 3.60225 28.2162 5.39021 30.9744C5.44174 31.0539 5.48674 31.1233 5.52421 31.182C5.72472 31.4962 5.72472 32.0057 5.52421 32.3199C5.32369 32.6341 4.99859 32.6341 4.79807 32.3199C4.76366 32.266 4.72067 32.1998 4.67021 32.1222C4.11784 31.2725 2.66995 29.0451 1.77306 26.3685C1.28158 24.9017 0.929468 23.2272 1.01203 21.5179C1.09628 19.7735 1.62878 18.091 2.78659 16.6395C3.16541 16.1646 3.70893 15.7275 4.34987 15.3212C4.44628 15.2601 4.5456 15.1993 4.64771 15.1387V11.2304C4.16518 11.3543 3.68237 11.4849 3.19917 11.6226ZM9.78225 10.1484C10.8088 9.9766 11.8355 9.82977 12.863 9.7046V12.0434L12.8416 12.049C11.7839 12.3292 10.7553 12.6313 9.78225 12.9508V10.1484ZM5.67461 10.9766C6.68558 10.7363 7.69553 10.5245 8.70525 10.338L8.7453 13.3055C8.00106 13.5709 7.29867 13.8463 6.65175 14.1292C6.311 14.2782 5.98455 14.4298 5.67461 14.5837V10.9766ZM13.8899 11.7809V9.58663C14.5739 9.51272 15.2584 9.44791 15.9437 9.39123V11.3076C15.2544 11.4554 14.5676 11.6135 13.8899 11.7809ZM16.9706 11.0956V9.3123C17.6544 9.26366 18.3391 9.22262 19.0249 9.1882C19.0246 9.19933 19.0244 9.21053 19.0244 9.22178V10.7202C18.3448 10.8335 17.6581 10.9591 16.9706 11.0956ZM20.0513 9.22178C20.0513 9.19474 20.0505 9.16801 20.0488 9.14166C20.3935 9.12758 20.7384 9.11505 21.0837 9.10395C21.0801 9.14241 21.0782 9.18175 21.0782 9.22178V10.4124C20.7393 10.4572 20.3967 10.5056 20.0513 10.5574V9.22178ZM22.1052 9.22178C22.1052 9.17178 22.1022 9.12286 22.0967 9.07539C22.4452 9.0669 22.794 9.05973 23.1433 9.05377C23.1359 9.10796 23.132 9.16416 23.132 9.22178V10.1812C22.7955 10.2119 22.4529 10.247 22.1052 10.2863V9.22178ZM36.9953 11.7134C37.1846 11.6854 37.3713 11.6584 37.5553 11.6321C38.1797 11.5432 38.2231 10.6136 37.4552 10.723C37.1704 10.7636 36.879 10.8045 36.5815 10.8459C36.5493 10.836 36.516 10.8308 36.4819 10.8308C36.4159 10.8308 36.3528 10.8503 36.2949 10.8858L35.9051 10.9399C30.3597 11.7088 22.9559 12.7354 16.8196 15.6941C16.5486 15.8248 16.3965 16.2751 16.4799 16.6998C16.5633 17.1245 16.8506 17.3629 17.1216 17.2322C17.5778 17.0122 18.0414 16.7998 18.511 16.5947V20.4925C17.7132 21.3105 17.3813 22.3 17.3641 23.333C17.3432 24.594 17.7888 25.9046 18.3561 27.062C18.927 28.2268 19.6433 29.2806 20.2126 30.0393C20.4981 30.4198 20.7486 30.7286 20.9284 30.9431C21.0183 31.0504 21.0907 31.1342 21.141 31.1917L21.1805 31.2366L21.1995 31.2579L21.2153 31.2756L21.2197 31.2805L21.221 31.2819L21.2214 31.2823C21.2215 31.2825 21.2216 31.2826 21.4505 31.0746L21.2216 31.2826L21.2814 31.3484L21.3602 31.3895C21.4605 31.4419 21.5533 31.4875 21.634 31.5205L21.6346 31.5208C21.6894 31.5432 21.8271 31.5994 21.9791 31.5903C22.0729 31.5847 22.2398 31.5493 22.3653 31.3948C22.4846 31.248 22.4886 31.0882 22.4829 31.0119C22.4728 30.8767 22.4137 30.7581 22.39 30.7106L22.3896 30.7099C22.3411 30.6126 22.2626 30.4816 22.1801 30.3441L22.18 30.3439L22.1799 30.3438L22.179 30.3423C22.1571 30.3058 22.1349 30.2688 22.113 30.232C21.9998 30.0416 21.8673 29.8127 21.7314 29.5447C21.1894 28.4758 20.5919 26.785 21.0538 24.6134C21.2762 23.568 22.0388 22.5539 23.2543 21.5668C24.4639 20.5846 26.069 19.6722 27.8759 18.8181C30.4762 17.5889 33.4284 16.509 36.1341 15.5193C37.1978 15.1302 38.2235 14.755 39.1746 14.3902L38.9956 13.4234C38.4159 13.4234 37.7227 13.4811 36.9462 13.5884C36.9777 13.4842 36.9953 13.3676 36.9953 13.2446V11.7134ZM19.0244 21.4272L19.0181 21.4271C18.5632 21.9974 18.3756 22.6509 18.364 23.3496C18.3469 24.3822 18.7169 25.526 19.2541 26.6219C19.528 27.1809 19.8398 27.7161 20.1525 28.2034C19.8794 27.1575 19.7626 25.8775 20.0757 24.4054C20.3668 23.037 21.3304 21.8409 22.624 20.7905C23.9235 19.7353 25.6104 18.7829 27.4485 17.914C29.5033 16.9427 31.7871 16.0583 33.9794 15.2454C33.9713 15.2227 33.9638 15.1993 33.9572 15.1752C32.5727 15.4973 31.07 15.9111 29.5502 16.3932C25.7888 17.5865 22.0179 19.1685 19.7701 20.734C19.6728 20.8018 19.5814 20.8715 19.4956 20.9429C19.4165 21.2279 19.2353 21.4272 19.0244 21.4272ZM36.0697 13.7245C35.7065 13.7865 35.3297 13.8574 34.9415 13.9365V12.0367C35.29 11.9784 35.6325 11.9228 35.9684 11.87V13.2446C35.9684 13.4245 36.0061 13.5905 36.0697 13.7245ZM33.9146 12.214V14.1587C33.5781 14.2356 33.2353 14.3178 32.8877 14.4048V12.4021C33.2343 12.3367 33.5768 12.2741 33.9146 12.214ZM31.8608 12.6016V14.6721C31.1586 14.8618 30.4429 15.069 29.7248 15.2907C29.7768 15.165 29.807 15.015 29.807 14.854V13.2447C29.807 13.1742 29.8012 13.1057 29.7903 13.0405C30.4907 12.8834 31.1822 12.7373 31.8608 12.6016ZM28.7801 14.854C28.7801 15.1297 28.8686 15.3731 29.0035 15.5181C28.2426 15.7628 27.4792 16.024 26.7262 16.2984V13.7899C27.4148 13.6068 28.1006 13.4349 28.7801 13.2737V14.854ZM25.6993 16.4632C25.6993 16.5371 25.7057 16.6087 25.7176 16.6767C24.8244 17.0213 23.955 17.3833 23.132 17.7573V14.8498C23.9848 14.5714 24.8428 14.3122 25.6993 14.071V16.4632ZM19.5379 19.6841C20.2814 19.1956 21.1511 18.7118 22.1051 18.2425L22.1051 15.1955C21.2385 15.4963 20.3803 15.8177 19.5379 16.1613V19.6841ZM21.5059 31.1807C21.5057 31.1806 21.5046 31.1781 21.503 31.1735C21.5052 31.1785 21.506 31.1808 21.5059 31.1807ZM22.0363 30.6038C22.0347 30.6033 22.0324 30.6026 22.0293 30.6015L22.036 30.6033C22.038 30.604 22.039 30.6044 22.0391 30.6045C22.0392 30.6046 22.0383 30.6044 22.0363 30.6038Z" fill="black"/>
<path fill-rule="evenodd" clip-rule="evenodd" d="M14.9742 16.3419C15.0615 16.6039 14.92 16.887 14.658 16.9743C14.4106 17.0568 14.1003 17.1612 13.7507 17.2903C13.4916 17.386 13.2041 17.2536 13.1084 16.9945C13.0127 16.7355 13.1452 16.4479 13.4042 16.3523C13.7694 16.2174 14.092 16.1089 14.3418 16.0257C14.6037 15.9383 14.8869 16.0799 14.9742 16.3419ZM12.2274 17.3687C12.3524 17.615 12.254 17.9159 12.0078 18.0409C11.4542 18.3217 10.9103 18.6485 10.4372 19.0237C10.2208 19.1953 9.90634 19.159 9.73476 18.9426C9.56318 18.7263 9.59949 18.4118 9.81586 18.2402C10.3565 17.8115 10.9618 17.4502 11.5553 17.1491C11.8016 17.0241 12.1025 17.1225 12.2274 17.3687ZM9.07915 19.6483C9.32111 19.7814 9.40936 20.0854 9.27627 20.3274C9.14123 20.5729 9.0439 20.8292 8.99013 21.0981C8.93077 21.3949 8.90126 21.6951 8.89842 21.998C8.89583 22.2741 8.66988 22.4959 8.39375 22.4933C8.11762 22.4907 7.89587 22.2647 7.89846 21.9886C7.90185 21.6267 7.93719 21.2638 8.00955 20.9019C8.08519 20.5238 8.22066 20.1716 8.40007 19.8454C8.53316 19.6034 8.8372 19.5152 9.07915 19.6483ZM8.55127 23.4841C8.81632 23.4066 9.09401 23.5586 9.17151 23.8237C9.34428 24.4145 9.59076 25.0054 9.88727 25.5878C10.0126 25.8339 9.91462 26.135 9.66854 26.2602C9.42245 26.3855 9.12139 26.2876 8.99611 26.0415C8.67793 25.4165 8.40555 24.7673 8.2117 24.1043C8.1342 23.8393 8.28623 23.5616 8.55127 23.4841ZM10.1813 27.1194C10.4112 26.9664 10.7216 27.0288 10.8745 27.2587C11.2454 27.8161 11.638 28.3499 12.0248 28.8511C12.1935 29.0697 12.1531 29.3837 11.9345 29.5524C11.7158 29.7211 11.4019 29.6807 11.2332 29.462C10.837 28.9487 10.4296 28.3952 10.042 27.8126C9.88899 27.5827 9.95136 27.2723 10.1813 27.1194ZM12.5631 30.3311C12.7776 30.1572 13.0925 30.19 13.2664 30.4045C13.4965 30.6881 13.7106 30.9538 13.8962 31.1951C14.0645 31.414 14.0236 31.7279 13.8047 31.8963C13.5858 32.0647 13.2719 32.0237 13.1035 31.8049C12.9266 31.5749 12.7199 31.3182 12.4898 31.0344C12.3158 30.82 12.3487 30.5051 12.5631 30.3311Z" fill="black"/>
</svg>
