<svg width="72" height="86" viewBox="0 0 72 86" fill="none" xmlns="http://www.w3.org/2000/svg">
<g clip-path="url(#clip0_830:104)">
<path fill-rule="evenodd" clip-rule="evenodd" d="M71.5 20.0667V65.2167L35.6414 86L0.5 65.2167V20.0667L35.6414 0L71.5 20.0667Z" fill="#D0E9FF"/>
<path fill-rule="evenodd" clip-rule="evenodd" d="M16.0008 26.8058C16.2614 26.5453 16.6494 26.4595 16.9957 26.5862L22.0387 28.433L37.4881 16.2772C37.8579 15.9076 38.4571 15.9076 38.8269 16.2772L60.2227 33.6847C60.4934 33.9554 60.5744 34.3626 60.428 34.7163C60.2814 35.0702 59.9363 35.3008 59.5534 35.3008H57.942V60.197C57.942 60.7198 57.5181 61.1437 56.9954 61.1437H42.8704V61.1689H38.8821V61.1435H12.3147C11.792 61.1435 11.3681 60.7197 11.3681 60.1969V33.4074C11.3681 33.0246 11.5987 32.6793 11.9525 32.5328C12.3062 32.3862 12.7135 32.4674 12.9841 32.7379L22.63 42.3839L22.6305 42.3843L22.6309 42.3848L33.8753 53.6292L33.8758 53.6297L33.8762 53.6302L39.5006 59.2545H41.8564C41.8857 59.2518 41.9154 59.2504 41.9454 59.2504H56.0488V35.3008H52.7197C52.4686 35.3008 52.2279 35.201 52.0503 35.0235L38.1576 23.7897L26.9595 32.3288L30.5941 35.9634H41.9441C42.4668 35.9634 42.8907 36.3872 42.8907 36.91V47.8909C42.8907 48.0014 42.8708 48.1068 42.8361 48.2054L43.6841 49.0534C45.1827 50.552 45.1827 52.9903 43.6841 54.4888C42.9348 55.2381 41.9508 55.6128 40.9665 55.6127C39.9824 55.6127 38.998 55.238 38.2488 54.4889L30.2657 46.5058L30.2529 46.4927L30.2406 46.5051L25.5875 41.852L25.5997 41.8398L18.368 34.6081C18.2708 34.5108 18.1958 34.3934 18.1485 34.2643L15.7814 27.8007C15.6547 27.4546 15.7402 27.0664 16.0008 26.8058ZM27.1126 40.7181C27.075 40.6527 27.0266 40.5892 26.9661 40.5287L20.3572 33.9197L23.115 31.1619L40.4105 48.4575L37.6527 51.2153L31.6045 45.1671C31.544 45.1066 31.4805 45.0582 31.4151 45.0207L27.1126 40.7181ZM38.1576 18.2854L23.8033 29.1728L25.6207 30.9902L37.4882 21.7816C37.6658 21.6041 37.9065 21.5043 38.1576 21.5043C38.4086 21.5043 38.6494 21.6041 38.8269 21.7816L53.1118 33.4075H57.2679L38.1576 18.2854ZM40.9974 37.8567H32.4873L40.9974 46.3668V37.8567ZM38.9913 52.5539L39.5875 53.1501C39.9559 53.5184 40.4455 53.7213 40.9664 53.7213C41.4873 53.7213 41.977 53.5184 42.3452 53.1501C42.7137 52.7817 42.9164 52.292 42.9164 51.7712C42.9164 51.2504 42.7138 50.7606 42.3453 50.3923L41.7492 49.7961L38.9913 52.5539ZM19.4062 32.193L21.3883 30.211L18.2608 29.0656L19.4062 32.193ZM13.2614 59.2503H36.8188L33.2064 55.6379L32.3027 56.5415C32.1179 56.7264 31.8756 56.8188 31.6334 56.8188C31.3911 56.8188 31.1489 56.7264 30.964 56.5415C30.5944 56.1718 30.5944 55.5724 30.964 55.2027L31.8677 54.299L29.4579 51.8893L28.5544 52.7929C28.3695 52.9777 28.1273 53.0701 27.885 53.0701C27.6428 53.0701 27.4005 52.9776 27.2157 52.7929C26.846 52.4232 26.846 51.8238 27.2157 51.4542L28.1193 50.5505L25.7096 48.1408L24.8059 49.0444C24.6211 49.2293 24.3788 49.3217 24.1366 49.3217C23.8943 49.3217 23.6521 49.2293 23.4672 49.0444C23.0976 48.6748 23.0976 48.0754 23.4672 47.7056L24.3709 46.802L21.9612 44.3923L21.0576 45.296C20.8727 45.4808 20.6305 45.5732 20.3882 45.5732C20.146 45.5732 19.9037 45.4808 19.7189 45.296C19.3492 44.9263 19.3492 44.3269 19.7189 43.9572L20.6225 43.0535L18.2128 40.6438L17.3092 41.5473C17.1244 41.7322 16.8821 41.8246 16.6399 41.8246C16.3976 41.8246 16.1554 41.7321 15.9705 41.5473C15.6009 41.1777 15.6009 40.5783 15.9705 40.2086L16.8742 39.305L13.2614 35.6927V59.2503ZM45.6361 39.3711H53.2091C53.7318 39.3711 54.1557 39.7949 54.1557 40.3177V47.8907C54.1557 48.4136 53.7318 48.8374 53.2091 48.8374H45.6361C45.1134 48.8374 44.6895 48.4136 44.6895 47.8907V40.3177C44.6895 39.7949 45.1133 39.3711 45.6361 39.3711ZM46.5827 46.9441H52.2625V41.2644H46.5827V46.9441ZM17.7174 44.1648C17.4467 43.8941 17.0395 43.813 16.6857 43.9596C16.332 44.1062 16.1014 44.4514 16.1014 44.8342V55.4638C16.1014 55.9866 16.5253 56.4104 17.048 56.4104H27.6776C28.0605 56.4104 28.4056 56.1798 28.5522 55.826C28.6987 55.4723 28.6176 55.0651 28.3469 54.7944L17.7174 44.1648ZM25.3921 54.5171H17.9946V47.1195L25.3921 54.5171ZM38.1577 26.9704C40.1412 26.9704 41.7549 28.5841 41.7549 30.5675C41.7549 32.551 40.1412 34.1647 38.1577 34.1647C36.1742 34.1647 34.5605 32.551 34.5605 30.5675C34.5605 28.5841 36.1742 26.9704 38.1577 26.9704ZM38.1577 32.2715C39.0972 32.2715 39.8616 31.5072 39.8616 30.5675C39.8616 29.628 39.0972 28.8636 38.1577 28.8636C37.2182 28.8636 36.4538 29.628 36.4538 30.5675C36.4538 31.5071 37.2182 32.2715 38.1577 32.2715Z" fill="#0058AA"/>
</g>
<defs>
<clipPath id="clip0_830:104">
<rect width="71" height="86" fill="white" transform="matrix(-1 0 0 1 71.5 0)"/>
</clipPath>
</defs>
</svg>
