<svg width="40" height="40" viewBox="0 0 40 40" fill="none" xmlns="http://www.w3.org/2000/svg">
<g clip-path="url(#clip0_943:338)">
<path d="M27.7592 12.5641L25.8719 4.56674C25.8104 4.30635 25.5494 4.14528 25.2892 4.20657C25.0289 4.268 24.8676 4.5289 24.9291 4.78923L26.8164 12.7866C26.8691 13.0096 27.0679 13.1598 27.2874 13.1598C27.3242 13.1598 27.3616 13.1556 27.399 13.1468C27.6594 13.0854 27.8206 12.8245 27.7592 12.5641Z" fill="black"/>
<path d="M33.3395 36.2107L28.1268 14.1223C28.0653 13.862 27.8039 13.7008 27.5441 13.7622C27.2838 13.8236 27.1225 14.0845 27.1839 14.3448L32.3967 36.4331C32.4493 36.6561 32.6482 36.8063 32.8676 36.8063C32.9044 36.8063 32.9419 36.8021 32.9793 36.7933C33.2396 36.7319 33.4009 36.471 33.3395 36.2107Z" fill="black"/>
<path d="M6.98753 32.6964C6.7276 32.6351 6.4663 32.7961 6.40488 33.0565L5.66051 36.2107C5.59909 36.471 5.76035 36.732 6.02068 36.7934C6.05806 36.8022 6.09544 36.8064 6.13231 36.8064C6.35177 36.8064 6.55074 36.6561 6.60327 36.4332L7.34763 33.279C7.40912 33.0187 7.24786 32.7578 6.98753 32.6964Z" fill="black"/>
<path d="M13.7106 4.20657C13.4507 4.14514 13.1894 4.30634 13.1279 4.56673L6.8861 31.0157C6.82467 31.2761 6.98594 31.537 7.24626 31.5984C7.28364 31.6072 7.32103 31.6114 7.35789 31.6114C7.57742 31.6114 7.77632 31.4611 7.82892 31.2382L14.0707 4.78922C14.1322 4.5289 13.9709 4.26799 13.7106 4.20657Z" fill="black"/>
<path d="M35.9814 36.1901L27.0345 4.54616C26.9617 4.28867 26.6938 4.13914 26.4367 4.21184C26.1793 4.28461 26.0296 4.55228 26.1024 4.80971L35.0492 36.4537C35.1096 36.667 35.3038 36.8064 35.515 36.8064C35.5587 36.8064 35.603 36.8004 35.6471 36.7879C35.9045 36.7152 36.0542 36.4476 35.9814 36.1901Z" fill="black"/>
<path d="M12.5631 4.21192C12.3059 4.13921 12.038 4.28874 11.9653 4.54623L3.0184 36.1902C2.94563 36.4476 3.09522 36.7153 3.35265 36.7881C3.39674 36.8005 3.44108 36.8065 3.48471 36.8065C3.69593 36.8065 3.89019 36.6672 3.95052 36.4538L12.8974 4.80985C12.9701 4.55229 12.8205 4.28468 12.5631 4.21192Z" fill="black"/>
<path d="M20.7541 4.66303C20.7459 4.39568 20.5244 4.18498 20.2551 4.19381C19.9877 4.202 19.7776 4.42545 19.7859 4.69281L19.8429 6.54615H19.1576L19.2146 4.69281C19.2228 4.42545 19.0128 4.202 18.7454 4.19381C18.4812 4.18562 18.2546 4.39568 18.2464 4.66303L18.1741 7.01569C18.17 7.14666 18.2192 7.2737 18.3104 7.3678C18.4017 7.46184 18.5271 7.51494 18.6582 7.51494H20.3425C20.4735 7.51494 20.599 7.46184 20.6902 7.3678C20.7814 7.2737 20.8306 7.14666 20.8266 7.01569L20.7541 4.66303Z" fill="black"/>
<path d="M20.8636 8.23229C20.8556 7.97074 20.6412 7.76288 20.3795 7.76288H18.6204C18.3586 7.76288 18.1443 7.97074 18.1363 8.23229L18.009 12.3628C18.005 12.4938 18.0541 12.6208 18.1453 12.7149C18.2366 12.809 18.3621 12.8621 18.4931 12.8621H20.5067C20.6377 12.8621 20.7632 12.809 20.8545 12.7149C20.9457 12.6208 20.9949 12.4938 20.9908 12.3628L20.8636 8.23229ZM18.9926 11.8934L19.09 8.73161H19.9098L20.0072 11.8934H18.9926Z" fill="black"/>
<path d="M21.0383 13.9153C21.0303 13.6538 20.8159 13.4459 20.5542 13.4459H18.445C18.1834 13.4459 17.969 13.6538 17.9609 13.9153L17.8157 18.6296C17.8116 18.7606 17.8608 18.8876 17.952 18.9817C18.0432 19.0757 18.1687 19.1289 18.2998 19.1289H20.6995C20.8306 19.1289 20.9561 19.0758 21.0473 18.9817C21.1385 18.8876 21.1877 18.7606 21.1836 18.6296L21.0383 13.9153ZM18.7992 18.1602L18.9147 14.4146H20.0846L20.2001 18.1602H18.7992Z" fill="black"/>
<path d="M21.2508 20.8208C21.2428 20.5592 21.0284 20.3513 20.7666 20.3513H18.2326C17.9708 20.3513 17.7565 20.5592 17.7484 20.8208L17.5715 26.5729C17.5675 26.7038 17.6166 26.8309 17.7079 26.925C17.7991 27.0191 17.9245 27.0722 18.0556 27.0722H20.9436C21.0746 27.0722 21.2001 27.0191 21.2913 26.925C21.3826 26.8309 21.4317 26.7039 21.4277 26.5729L21.2508 20.8208ZM18.555 26.1035L18.7022 21.3201H20.297L20.444 26.1035H18.555Z" fill="black"/>
<path d="M21.5139 29.3447C21.5058 29.083 21.2914 28.8752 21.0297 28.8752H17.9712C17.7095 28.8752 17.4952 29.0831 17.4871 29.3447L17.2727 36.307C17.2644 36.5743 17.4745 36.7978 17.7419 36.806C18.0071 36.8141 18.2327 36.6042 18.2409 36.3368L18.4409 29.844H20.56L20.76 36.3368C20.768 36.5992 20.9832 36.8062 21.2438 36.8062C21.2489 36.8062 21.2539 36.8062 21.2589 36.806C21.5263 36.7978 21.7364 36.5743 21.7281 36.307L21.5139 29.3447Z" fill="black"/>
</g>
<defs>
<clipPath id="clip0_943:338">
<rect width="33" height="33" fill="white" transform="translate(3 4)"/>
</clipPath>
</defs>
</svg>
