<svg width="198" height="47" viewBox="0 0 198 47" fill="none" xmlns="http://www.w3.org/2000/svg">
<path d="M46.4929 36.7806C45.6949 36.7806 45.0207 36.5081 44.4704 35.963C43.9202 35.418 43.645 34.7516 43.645 33.9641C43.645 33.1765 43.9215 32.514 44.4743 31.9768C45.0272 31.4396 45.7105 31.171 46.5242 31.171C47.2961 31.171 47.9898 31.4578 48.6053 32.0316L48.0655 32.7044C47.6013 32.235 47.0927 32.0003 46.5398 32.0003C45.9869 32.0003 45.5227 32.1828 45.1472 32.5479C44.7716 32.9131 44.5839 33.3825 44.5839 33.9562C44.5839 34.2066 44.6282 34.4491 44.7169 34.6838C44.8056 34.9159 44.9333 35.1246 45.1002 35.3097C45.2698 35.4949 45.4745 35.6423 45.7144 35.7518C45.957 35.8587 46.2321 35.9122 46.5398 35.9122C47.0875 35.9122 47.596 35.6931 48.0655 35.255L48.6131 35.8652C47.982 36.4755 47.2753 36.7806 46.4929 36.7806Z" fill="black"/>
<path d="M60.0251 36.7806C59.2062 36.7806 58.5177 36.5081 57.9596 35.963C57.4015 35.418 57.1224 34.7516 57.1224 33.9641C57.1224 33.1712 57.4002 32.5075 57.9557 31.9729C58.5112 31.4383 59.201 31.171 60.0251 31.171C60.8492 31.171 61.539 31.4409 62.0945 31.9807C62.65 32.5206 62.9277 33.1817 62.9277 33.9641C62.9277 34.7516 62.6487 35.418 62.0906 35.963C61.5325 36.5081 60.844 36.7806 60.0251 36.7806ZM60.0329 35.9435C60.2728 35.9435 60.5088 35.9004 60.741 35.8144C60.9731 35.7283 61.1817 35.6018 61.3669 35.4349C61.5546 35.268 61.7033 35.062 61.8128 34.8168C61.925 34.5691 61.981 34.2848 61.981 33.9641C61.981 33.4007 61.788 32.9339 61.4021 32.5636C61.0161 32.1933 60.5597 32.0081 60.0329 32.0081C59.5061 32.0081 59.0458 32.192 58.652 32.5597C58.2582 32.9274 58.0613 33.3955 58.0613 33.9641C58.0613 34.5326 58.2595 35.0046 58.6559 35.3802C59.0523 35.7557 59.5113 35.9435 60.0329 35.9435Z" fill="black"/>
<path d="M76.796 36.7102H75.8884L72.9701 32.767V36.7102H72.0469V31.2335H72.9545L75.8884 35.1924V31.2335H76.796V36.7102Z" fill="black"/>
<path d="M88.1013 36.765C87.2198 36.765 86.4739 36.4729 85.8637 35.8887L86.2627 35.0907C86.8886 35.6331 87.5067 35.9044 88.1169 35.9044C88.4664 35.9044 88.7246 35.8379 88.8915 35.7048C89.0584 35.5718 89.1419 35.4088 89.1419 35.2159C89.1419 34.9498 89.0193 34.7516 88.7741 34.6213C88.6542 34.5561 88.529 34.5 88.3986 34.453C88.2682 34.4061 88.1091 34.3578 87.9213 34.3083C87.4311 34.1675 87.092 34.0397 86.9042 33.9249C86.6435 33.7632 86.4687 33.6094 86.3801 33.4633C86.2497 33.2443 86.1845 32.9887 86.1845 32.6966C86.1845 32.2063 86.3748 31.8268 86.7556 31.5582C87.1364 31.2896 87.611 31.1553 88.1795 31.1553C88.915 31.1553 89.5539 31.3457 90.0964 31.7264L89.713 32.5401C89.1236 32.2011 88.589 32.0316 88.1091 32.0316C87.8535 32.0316 87.641 32.0772 87.4715 32.1685C87.302 32.2598 87.2172 32.4097 87.2172 32.6184C87.2172 32.827 87.3098 33.0017 87.4949 33.1426C87.6801 33.2808 87.9892 33.406 88.4221 33.5181C89.0532 33.685 89.5122 33.9041 89.7991 34.1753C90.0181 34.3944 90.1407 34.7256 90.1668 35.1689C90.1668 35.5236 90.0742 35.8183 89.889 36.053C89.6804 36.306 89.4183 36.4885 89.1027 36.6007C88.7898 36.7102 88.456 36.765 88.1013 36.765Z" fill="black"/>
<path d="M101.387 36.7102H100.463V32.0629H98.7344V31.2335H103.124V32.0629H101.387V36.7102Z" fill="black"/>
<path d="M116.573 36.7102H115.525L114.524 35.0516C114.471 35.0568 113.955 35.0594 112.975 35.0594V36.7102H112.051V31.2335H114.273C114.675 31.2335 115.043 31.2948 115.376 31.4174C115.713 31.54 115.984 31.7421 116.19 32.0237C116.383 32.2976 116.48 32.6575 116.48 33.1034C116.48 33.9849 116.101 34.5769 115.345 34.8794L116.573 36.7102ZM114.273 34.2301C115.16 34.2301 115.603 33.8623 115.603 33.1269C115.603 32.4175 115.16 32.0629 114.273 32.0629H112.975V34.2301H114.273Z" fill="black"/>
<path d="M128.103 36.7806C127.568 36.7806 127.126 36.6789 126.777 36.4755C126.427 36.2721 126.165 35.9969 125.991 35.6501C125.819 35.3006 125.732 34.9055 125.732 34.4648V31.2335H126.656V34.4648C126.656 34.9707 126.795 35.3436 127.074 35.5836C127.353 35.8235 127.696 35.9435 128.103 35.9435C128.505 35.9435 128.842 35.8235 129.116 35.5836C129.39 35.3436 129.527 34.9707 129.527 34.4648V31.2335H130.45V34.4648C130.45 34.8873 130.368 35.2745 130.204 35.6266C130.039 35.9787 129.776 36.2629 129.414 36.4794C129.067 36.6802 128.63 36.7806 128.103 36.7806Z" fill="black"/>
<path d="M142.309 36.7806C141.511 36.7806 140.837 36.5081 140.287 35.963C139.737 35.418 139.462 34.7516 139.462 33.9641C139.462 33.1765 139.738 32.514 140.291 31.9768C140.844 31.4396 141.527 31.171 142.341 31.171C143.113 31.171 143.806 31.4578 144.422 32.0316L143.882 32.7044C143.418 32.235 142.909 32.0003 142.356 32.0003C141.804 32.0003 141.339 32.1828 140.964 32.5479C140.588 32.9131 140.4 33.3825 140.4 33.9562C140.4 34.2066 140.445 34.4491 140.533 34.6838C140.622 34.9159 140.75 35.1246 140.917 35.3097C141.086 35.4949 141.291 35.6423 141.531 35.7518C141.774 35.8587 142.049 35.9122 142.356 35.9122C142.904 35.9122 143.413 35.6931 143.882 35.255L144.43 35.8652C143.799 36.4755 143.092 36.7806 142.309 36.7806Z" fill="black"/>
<path d="M155.51 36.7102H154.587V32.0629H152.858V31.2335H157.247V32.0629H155.51V36.7102Z" fill="black"/>
<path d="M167.098 36.7102H166.175V31.2335H167.098V36.7102Z" fill="black"/>
<path d="M179.121 36.7806C178.303 36.7806 177.614 36.5081 177.056 35.963C176.498 35.418 176.219 34.7516 176.219 33.9641C176.219 33.1712 176.497 32.5075 177.052 31.9729C177.608 31.4383 178.297 31.171 179.121 31.171C179.946 31.171 180.635 31.4409 181.191 31.9807C181.746 32.5206 182.024 33.1817 182.024 33.9641C182.024 34.7516 181.745 35.418 181.187 35.963C180.629 36.5081 179.94 36.7806 179.121 36.7806ZM179.129 35.9435C179.369 35.9435 179.605 35.9004 179.837 35.8144C180.069 35.7283 180.278 35.6018 180.463 35.4349C180.651 35.268 180.8 35.062 180.909 34.8168C181.021 34.5691 181.077 34.2848 181.077 33.9641C181.077 33.4007 180.884 32.9339 180.498 32.5636C180.112 32.1933 179.656 32.0081 179.129 32.0081C178.602 32.0081 178.142 32.192 177.748 32.5597C177.355 32.9274 177.158 33.3955 177.158 33.9641C177.158 34.5326 177.356 35.0046 177.752 35.3802C178.149 35.7557 178.608 35.9435 179.129 35.9435Z" fill="black"/>
<path d="M195.892 36.7102H194.985L192.066 32.767V36.7102H191.143V31.2335H192.051L194.985 35.1924V31.2335H195.892V36.7102Z" fill="black"/>
<path d="M54.9001 26.4776H51.6197L46.9527 20.424V26.4776H43.3848V14.624H46.6652L51.3491 20.7115V14.624H54.9001V26.4776Z" fill="black"/>
<path d="M68.9731 26.4776H58.7936V14.624H68.8209V17.6001H62.7166V19.0543H68.2629V22.0304H62.7166V23.5015H68.9731V26.4776Z" fill="black"/>
<path d="M87.361 26.4776H83.3365L81.561 19.3925L79.7348 26.4776H75.7103L71.7366 14.624H75.9302L77.8409 22.4024L79.7348 14.624H83.5564L85.484 22.4024L87.361 14.624H91.3686L87.361 26.4776Z" fill="black"/>
<path d="M113.117 26.4776H109.194V22.1995H105.525V26.4776H101.602V14.624H105.525V19.2234H109.194V14.624H113.117V26.4776Z" fill="black"/>
<path d="M122.929 26.7482C121.058 26.7482 119.505 26.1648 118.27 24.998C117.036 23.8313 116.419 22.3404 116.419 20.5255C116.419 18.733 117.033 17.2591 118.262 16.1036C119.491 14.9481 121.046 14.3704 122.929 14.3704C124.811 14.3704 126.367 14.951 127.596 16.1121C128.825 17.2732 129.439 18.7443 129.439 20.5255C129.439 22.3404 128.825 23.8313 127.596 24.998C126.367 26.1648 124.811 26.7482 122.929 26.7482ZM122.98 23.4846C123.611 23.4846 124.175 23.231 124.671 22.7237C125.167 22.2164 125.415 21.4893 125.415 20.5424C125.415 19.6405 125.169 18.9303 124.679 18.4118C124.189 17.8932 123.622 17.6339 122.98 17.6339C122.326 17.6339 121.74 17.8904 121.221 18.4033C120.702 18.9162 120.443 19.6293 120.443 20.5424C120.443 21.4442 120.702 22.16 121.221 22.6899C121.74 23.2197 122.326 23.4846 122.98 23.4846Z" fill="black"/>
<path d="M143.978 26.4776H139.548L138.127 23.4001H136.656V26.4776H132.733V14.624H138.465C139.412 14.624 140.269 14.7678 141.036 15.0552C141.808 15.3427 142.422 15.8105 142.879 16.4587C143.307 17.0844 143.521 17.8876 143.521 18.8683C143.521 20.5931 142.896 21.8444 141.644 22.6222L143.978 26.4776ZM138.465 20.424C139.311 20.424 139.756 19.9449 139.801 18.9867C139.801 18.1074 139.356 17.6452 138.465 17.6001H136.656V20.424H138.465Z" fill="black"/>
<path d="M151.107 26.4776H147.184V14.624H151.107V26.4776Z" fill="black"/>
<path d="M165.362 26.4776H154.49V24.0257L160.019 17.6339H154.692V14.624H165.244V17.0759L159.715 23.4677H165.362V26.4776Z" fill="black"/>
<path d="M174.656 26.7482C172.785 26.7482 171.232 26.1648 169.998 24.998C168.763 23.8313 168.146 22.3404 168.146 20.5255C168.146 18.733 168.76 17.2591 169.989 16.1036C171.218 14.9481 172.774 14.3704 174.656 14.3704C176.539 14.3704 178.094 14.951 179.323 16.1121C180.552 17.2732 181.166 18.7443 181.166 20.5255C181.166 22.3404 180.552 23.8313 179.323 24.998C178.094 26.1648 176.539 26.7482 174.656 26.7482ZM174.707 23.4846C175.338 23.4846 175.902 23.231 176.398 22.7237C176.894 22.2164 177.142 21.4893 177.142 20.5424C177.142 19.6405 176.897 18.9303 176.406 18.4118C175.916 17.8932 175.349 17.6339 174.707 17.6339C174.053 17.6339 173.467 17.8904 172.948 18.4033C172.43 18.9162 172.17 19.6293 172.17 20.5424C172.17 21.4442 172.43 22.16 172.948 22.6899C173.467 23.2197 174.053 23.4846 174.707 23.4846Z" fill="black"/>
<path d="M195.976 26.4776H192.695L188.028 20.424V26.4776H184.46V14.624H187.741L192.425 20.7115V14.624H195.976V26.4776Z" fill="black"/>
<path fill-rule="evenodd" clip-rule="evenodd" d="M26.5524 12.2614L20.0682 8.9166L17.8208 16.4189C17.6866 16.8667 18.172 17.246 18.5736 17.0071L26.5524 12.2614ZM5.5542 39.5832L9.86773 42.1215L9.91875 35.3321C9.9216 34.954 9.71614 34.6049 9.38413 34.4239L6.31255 32.749C5.97081 32.5627 5.5542 32.81 5.5542 33.1993V39.5832ZM16.6521 46.1138L16.7227 46.1554L27.3637 39.7653L16.65 45.9337L16.6521 46.1138ZM33.0392 29.2998L29.4159 31.0404C29.0604 31.2111 28.8344 31.5705 28.8344 31.9649V32.9148C28.8344 33.3728 28.59 33.7961 28.1934 34.0251L23.4747 36.7501C22.7909 37.145 21.9361 36.6515 21.9361 35.8619V29.7225C21.9361 28.9222 22.3507 28.1791 23.0316 27.7587L28.0521 24.6595C28.3938 24.4486 28.8344 24.6944 28.8344 25.0959V26.7422C28.8344 27.1326 29.2531 27.3798 29.5949 27.1913L33.0392 25.2914V29.2998ZM9.79038 21.4405L9.78921 21.4433L9.79043 21.444L9.90989 28.7759C9.91609 29.1566 9.51992 29.4111 9.17628 29.2471L6.1382 27.7976C5.7814 27.6273 5.5542 27.2672 5.5542 26.8719V18.9149L11.2133 15.7305C11.6396 15.4907 12.1273 15.9274 11.9363 16.378L9.81358 21.3858L9.78925 21.3712L9.79038 21.4405Z" fill="#0058AA"/>
<path fill-rule="evenodd" clip-rule="evenodd" d="M0 15.3851V36.4561L16.723 46.4899L33.1115 36.4561V15.3851L16.723 6.02026L0 15.3851ZM1.33784 16.9679V35.6986L16.0541 44.5283V25.7976L1.33784 16.9679ZM17.3919 25.7937V44.5117L31.7736 35.7065V16.9885L17.3919 25.7937ZM31.1471 15.8035L16.7163 7.55732L1.99432 15.8016L16.7195 24.6367L31.1471 15.8035Z" fill="#0058AA"/>
</svg>
