<svg width="37" height="35" viewBox="0 0 37 35" fill="none" xmlns="http://www.w3.org/2000/svg">
<path fill-rule="evenodd" clip-rule="evenodd" d="M32.6859 8.78511C32.9445 8.69078 33.2341 8.7546 33.4286 8.94847C33.6232 9.14241 33.687 9.43131 33.5924 9.68887L31.8254 14.499C31.7901 14.5951 31.7342 14.6825 31.6616 14.7549L26.2633 20.1366L26.2724 20.1456L22.7989 23.6084L22.7898 23.5992L22.7802 23.609L16.821 29.5499C16.2617 30.1074 15.5269 30.3862 14.7923 30.3862C14.0575 30.3863 13.323 30.1074 12.7636 29.5498C11.645 28.4346 11.645 26.6201 12.7636 25.5049C12.9888 25.2804 13.1751 25.0921 13.3608 24.9044L13.3608 24.9044L13.3608 24.9044C13.7311 24.5301 14.0991 24.1581 14.7692 23.5055L25.2482 13.0587L16.8891 6.70393L6.51844 15.064C6.38587 15.1961 6.20617 15.2703 6.01877 15.2703H3.53368V33.0933H14.0616C14.084 33.0933 14.1061 33.0944 14.128 33.0964H15.8866L20.085 28.9108L20.0857 28.9101L28.4794 20.5422L28.4801 20.5415L35.6806 13.3631C35.8826 13.1618 36.1866 13.1013 36.4506 13.2105C36.7147 13.3195 36.8869 13.5764 36.8869 13.8613V33.7977C36.8869 34.1868 36.5704 34.5022 36.1802 34.5022H16.3483V34.5211H13.371V34.5023H2.82704C2.43684 34.5023 2.1204 34.1869 2.1204 33.7978V15.2703H0.917563C0.631729 15.2703 0.374089 15.0987 0.264702 14.8354C0.155385 14.5722 0.215873 14.2692 0.417901 14.0677L16.3894 1.11329C16.6655 0.838201 17.1128 0.838201 17.3888 1.11329L28.9215 10.1594L32.6859 8.78511ZM25.2433 19.1609C25.1981 19.2059 25.162 19.2532 25.134 19.3018L21.9222 22.5038C21.8734 22.5317 21.826 22.5677 21.7808 22.6127L17.2659 27.1137L15.2073 25.0614L28.118 12.1903L30.1767 14.2426L25.2433 19.1609ZM27.6042 10.71L16.8891 2.60775L2.62359 13.8614H5.72609L16.3894 5.20954C16.5219 5.07746 16.7017 5.00321 16.8891 5.00321C17.0765 5.00321 17.2562 5.07746 17.3888 5.20954L26.2476 12.0625L27.6042 10.71ZM15.8217 28.5535L16.2667 28.1099L14.208 26.0575L13.763 26.5012C13.488 26.7753 13.3367 27.1398 13.3367 27.5274C13.3367 27.915 13.4881 28.2794 13.7631 28.5535C14.038 28.8276 14.4035 28.9786 14.7924 28.9786C15.1812 28.9786 15.5467 28.8276 15.8217 28.5535ZM29.407 11.4826L30.8866 12.9576L31.7416 10.6302L29.407 11.4826ZM35.4736 33.0932H17.8884L20.585 30.4049L21.2596 31.0774C21.3976 31.215 21.5784 31.2837 21.7593 31.2837C21.9401 31.2837 22.1209 31.215 22.2589 31.0774C22.5349 30.8023 22.5349 30.3562 22.2589 30.0811L21.5844 29.4086L23.3832 27.6153L24.0577 28.2877C24.1957 28.4253 24.3765 28.4941 24.5573 28.4941C24.7382 28.4941 24.919 28.4252 25.057 28.2877C25.3329 28.0126 25.3329 27.5666 25.057 27.2915L24.3824 26.619L26.1812 24.8257L26.8558 25.4982C26.9938 25.6358 27.1746 25.7045 27.3555 25.7045C27.5363 25.7045 27.7171 25.6358 27.8551 25.4982C28.1311 25.2231 28.1311 24.777 27.8551 24.5018L27.1806 23.8294L28.9793 22.0361L29.6539 22.7086C29.7919 22.8462 29.9727 22.915 30.1535 22.915C30.3344 22.915 30.5152 22.8462 30.6532 22.7086C30.9291 22.4335 30.9291 21.9875 30.6532 21.7123L29.9786 21.0398L31.7775 19.2465L32.4519 19.9189C32.5899 20.0565 32.7708 20.1253 32.9516 20.1253C33.1324 20.1253 33.3133 20.0565 33.4513 19.9189C33.7272 19.6438 33.7272 19.1978 33.4513 18.9227L32.7767 18.2502L35.4736 15.562V33.0932ZM32.9173 21.7141C32.6533 21.605 32.3493 21.6654 32.1473 21.8668L24.2125 29.7772C24.0105 29.9787 23.9499 30.2817 24.0593 30.5449C24.1687 30.8082 24.4263 30.9798 24.7122 30.9798H32.6469C33.0371 30.9798 33.3536 30.6644 33.3536 30.2753V22.365C33.3536 22.0801 33.1814 21.8232 32.9173 21.7141ZM31.9403 29.5709H26.4182L31.9403 24.0657V29.5709Z" fill="#0058AA"/>
</svg>
