<svg width="53" height="64" viewBox="0 0 53 64" fill="none" xmlns="http://www.w3.org/2000/svg">
<path d="M25.8731 24.5581C25.8731 27.702 23.3159 30.2558 20.1548 30.2558C16.9938 30.2558 14.4365 27.702 14.4365 24.5581C14.4365 21.4143 16.9938 18.8605 20.1548 18.8605C23.3159 18.8605 25.8731 21.4143 25.8731 24.5581Z" stroke="#0058AA" stroke-width="2"/>
<path d="M38.563 24.5581C38.563 26.88 36.6742 28.7674 34.3377 28.7674C32.0012 28.7674 30.1123 26.88 30.1123 24.5581C30.1123 22.2363 32.0012 20.3488 34.3377 20.3488C36.6742 20.3488 38.563 22.2363 38.563 24.5581Z" stroke="#0058AA" stroke-width="2"/>
<path d="M30.3524 42.0465C30.3524 43.2927 30.071 43.9694 29.7218 44.3662C29.3694 44.7665 28.8091 45.0408 27.9122 45.1867C27.0078 45.3338 25.8914 45.3307 24.5508 45.2809C24.1994 45.2679 23.8329 45.2517 23.4543 45.2349C22.4238 45.1892 21.3037 45.1395 20.1552 45.1395C19.0066 45.1395 17.8866 45.1892 16.8561 45.2349C16.4775 45.2516 16.111 45.2679 15.7596 45.2809C14.419 45.3307 13.3025 45.3338 12.3982 45.1867C11.5012 45.0408 10.941 44.7665 10.5886 44.3662C10.2394 43.9694 9.95801 43.2927 9.95801 42.0465C9.95801 37.1495 14.4187 33 20.1552 33C25.8917 33 30.3524 37.1495 30.3524 42.0465Z" stroke="#0058AA" stroke-width="2"/>
<path d="M30.9785 41.6744C35.9257 41.6744 43.2954 42.6752 43.2954 38.3476C43.2954 34.0199 39.2849 32 34.3376 32C31.3517 32 28.3658 33.1163 27.2461 34.9767" stroke="#0058AA" stroke-width="2"/>
</svg>
