<svg width="35" height="32" viewBox="0 0 35 32" fill="none" xmlns="http://www.w3.org/2000/svg">
<path d="M17.3133 25.1475C17.1238 24.923 16.9037 24.6586 16.66 24.3592C15.8156 23.322 14.6915 21.8709 13.5693 20.2128C12.4452 18.5518 11.3355 16.7013 10.5099 14.8641C9.67836 13.0137 9.16895 11.2505 9.16895 9.74418C9.16895 5.25936 12.8072 1.6279 17.3133 1.6279C21.8195 1.6279 25.4577 5.25936 25.4577 9.74418C25.4577 11.2505 24.9483 13.0137 24.1167 14.8641C23.2911 16.7013 22.1814 18.5518 21.0573 20.2128C19.9352 21.8709 18.811 23.322 17.9666 24.3592C17.7229 24.6586 17.5028 24.923 17.3133 25.1475ZM13.0475 9.74418C13.0475 12.0966 14.9612 14 17.3133 14C19.6654 14 21.5792 12.0966 21.5792 9.74418C21.5792 7.39179 19.6654 5.48836 17.3133 5.48836C14.9612 5.48836 13.0475 7.39179 13.0475 9.74418Z" stroke="#0058AA" stroke-width="2"/>
<path d="M23.8449 21.4651H29.1509C29.5542 21.4651 29.918 21.7074 30.0736 22.0795L32.97 29.0097C33.2454 29.6685 32.7614 30.3953 32.0474 30.3953H2.32437C1.58045 30.3953 1.09698 29.612 1.43049 28.947L4.90628 22.0168C5.07589 21.6786 5.42183 21.4651 5.80016 21.4651H11.1548" stroke="#0058AA" stroke-width="2"/>
</svg>
