<svg width="40" height="40" viewBox="0 0 40 40" fill="none" xmlns="http://www.w3.org/2000/svg">
<g clip-path="url(#clip0_943:384)">
<path fill-rule="evenodd" clip-rule="evenodd" d="M16.161 12.0191C16.3439 11.9716 16.5386 12.0139 16.6853 12.1331L19.0637 14.0656C19.0987 14.094 19.1304 14.1264 19.1581 14.162L21.2392 16.8377C21.3204 16.9421 21.3644 17.0705 21.3644 17.2027V20.0271H22.1077C22.436 20.0271 22.7023 20.2933 22.7023 20.6217C22.7023 20.9501 22.436 21.2163 22.1077 21.2163H21.6343L23.2873 22.7222L24.0933 21.2595C24.4524 20.49 25.5466 20.49 25.9057 21.2595L28.9526 26.7886C29.0249 26.9434 29.013 27.1245 28.9212 27.2686C28.8295 27.4127 28.6704 27.5 28.4995 27.5H21.4995C21.3286 27.5 21.1696 27.4127 21.0778 27.2686C20.986 27.1245 20.9742 26.9434 21.0464 26.7886L22.6975 23.7925C22.6973 23.7923 22.6971 23.7921 22.6968 23.792L20.3239 21.63V26.9055C20.3239 27.2339 20.0577 27.5001 19.7293 27.5001C19.4009 27.5001 19.1347 27.2339 19.1347 26.9055L19.1347 21.1066L16.8326 18.5004L12.9606 26.7264C12.8953 27.0482 12.5815 27.2562 12.2597 27.1909C11.9379 27.1256 11.7299 26.8118 11.7952 26.4899L15.7678 17.4791L12.2103 14.2378C11.9595 14.0259 11.928 13.6507 12.14 13.3999C12.352 13.1491 12.7271 13.1176 12.9779 13.3296L14.7355 14.9308L15.7583 12.3738C15.8285 12.1983 15.978 12.0666 16.161 12.0191ZM18.8853 18.402L19.8734 17.0186L18.824 15.6695L17.3449 17.0429L18.8853 18.402ZM19.6365 19.3961L20.1752 18.642V19.8869L19.6365 19.3961ZM16.5624 13.5655L18.0449 14.7701L16.3185 16.3732L15.6742 15.7861L16.5624 13.5655ZM22.2563 15.8649C23.3236 15.8649 24.1888 14.9997 24.1888 13.9324C24.1888 12.8652 23.3236 12 22.2563 12C21.1891 12 20.3239 12.8652 20.3239 13.9324C20.3239 14.9997 21.1891 15.8649 22.2563 15.8649ZM22.9996 13.9324C22.9996 14.3429 22.6668 14.6757 22.2563 14.6757C21.8458 14.6757 21.5131 14.3429 21.5131 13.9324C21.5131 13.522 21.8458 13.1892 22.2563 13.1892C22.6668 13.1892 22.9996 13.522 22.9996 13.9324ZM24.9995 21.6824L27.7144 26.5H22.2846L24.9995 21.6824Z" fill="black"/>
<rect x="-0.131836" y="20.1317" width="28.6568" height="28.6568" rx="3" transform="rotate(-45 -0.131836 20.1317)" stroke="black" stroke-width="1.3" stroke-linecap="round" stroke-dasharray="4 3"/>
</g>
<defs>
<clipPath id="clip0_943:384">
<rect width="40" height="40" fill="white"/>
</clipPath>
</defs>
</svg>
