<svg width="268" height="617" viewBox="0 0 268 617" fill="none" xmlns="http://www.w3.org/2000/svg">
<path fill-rule="evenodd" clip-rule="evenodd" d="M395.077 137.74V42.6742L320.252 0.422913L246.923 42.6742V137.74L320.252 181.5L395.077 137.74ZM389.091 134.263V49.6639L323.245 88.1729V172.772L389.091 134.263ZM317.259 172.7V88.1552L252.909 49.7534V134.298L317.259 172.7ZM320.282 7.35761L255.84 44.4884L320.267 82.9367L386.024 44.48L320.282 7.35761ZM642 282.601V187.536L567.175 145.284L493.846 187.536V282.601L567.175 326.361L642 282.601ZM636.014 279.124V194.525L570.168 233.034V317.633L636.014 279.124ZM564.182 317.562V233.017L499.832 194.615V279.16L564.182 317.562ZM567.205 152.219L502.763 189.35L567.19 227.798L632.947 189.342L567.205 152.219ZM559.692 427.463V332.397L484.867 290.146L411.538 332.397V427.463L484.867 471.223L559.692 427.463ZM553.706 423.986V339.387L487.86 377.896V462.495L553.706 423.986ZM481.874 462.423V377.878L417.524 339.476V424.021L481.874 462.423ZM484.897 297.081L420.455 334.212L484.882 372.66L550.639 334.203L484.897 297.081ZM642 477.259V572.324L567.175 616.085L493.846 572.324V477.259L567.175 435.008L642 477.259ZM636.014 484.249V568.847L570.168 607.357V522.758L636.014 484.249ZM564.182 522.74V607.285L499.832 568.883V484.338L564.182 522.74ZM502.763 479.073L567.205 441.942L632.947 479.065L567.19 517.521L502.763 479.073ZM559.692 42.6742V137.74L484.867 181.5L411.538 137.74V42.6742L484.867 0.422913L559.692 42.6742ZM553.706 49.6639V134.263L487.86 172.772V88.1729L553.706 49.6639ZM481.874 88.1552V172.7L417.524 134.298V49.7534L481.874 88.1552ZM420.455 44.4884L484.897 7.35761L550.639 44.48L484.882 82.9367L420.455 44.4884ZM230.461 137.74V42.6742L155.636 0.422913L82.3076 42.6742V137.74L155.636 181.5L230.461 137.74ZM224.475 134.263V49.6639L158.629 88.1729V172.772L224.475 134.263ZM152.643 172.7V88.1552L88.2936 49.7534V134.298L152.643 172.7ZM155.666 7.35761L91.2241 44.4884L155.652 82.9367L221.408 44.48L155.666 7.35761ZM230.461 332.397V427.463L155.636 471.223L82.3076 427.463V332.397L155.636 290.146L230.461 332.397ZM224.475 339.387V423.986L158.629 462.495V377.896L224.475 339.387ZM152.643 377.878V462.423L88.2936 424.021V339.476L152.643 377.878ZM91.2241 334.212L155.666 297.081L221.408 334.203L155.652 372.66L91.2241 334.212ZM395.077 427.463V332.397L320.252 290.146L246.923 332.397V427.463L320.252 471.223L395.077 427.463ZM389.091 423.986V339.387L323.245 377.896V462.495L389.091 423.986ZM317.259 462.423V377.878L252.909 339.476V424.021L317.259 462.423ZM320.282 297.081L255.84 334.212L320.267 372.66L386.024 334.203L320.282 297.081ZM477.384 187.536V282.601L402.559 326.361L329.231 282.601V187.536L402.559 145.284L477.384 187.536ZM471.398 194.525V279.124L405.552 317.633V233.034L471.398 194.525ZM399.566 233.017V317.562L335.217 279.16V194.615L399.566 233.017ZM338.147 189.35L402.589 152.219L468.331 189.342L402.575 227.798L338.147 189.35ZM477.384 572.324V477.259L402.559 435.008L329.231 477.259V572.324L402.559 616.085L477.384 572.324ZM471.398 568.847V484.249L405.552 522.758V607.357L471.398 568.847ZM399.566 607.285V522.74L335.217 484.338V568.883L399.566 607.285ZM402.589 441.942L338.147 479.073L402.575 517.521L468.331 479.065L402.589 441.942ZM312.769 187.536V282.601L237.944 326.361L164.615 282.601V187.536L237.944 145.284L312.769 187.536ZM306.783 194.525V279.124L240.937 317.633V233.034L306.783 194.525ZM234.951 233.017V317.562L170.601 279.16V194.615L234.951 233.017ZM173.532 189.35L237.974 152.219L303.716 189.342L237.959 227.798L173.532 189.35ZM312.769 572.324V477.259L237.944 435.008L164.615 477.259V572.324L237.944 616.085L312.769 572.324ZM306.783 568.847V484.249L240.937 522.758V607.357L306.783 568.847ZM234.951 607.285V522.74L170.601 484.338V568.883L234.951 607.285ZM237.974 441.942L173.532 479.073L237.959 517.521L303.716 479.065L237.974 441.942ZM148.154 477.259V572.324L73.3287 616.085L0 572.324V477.259L73.3287 435.008L148.154 477.259ZM142.168 484.249V568.847L76.3217 607.357V522.758L142.168 484.249ZM70.3357 522.74V607.285L5.98602 568.883V484.338L70.3357 522.74ZM8.91656 479.073L73.3585 441.942L139.101 479.065L73.344 517.521L8.91656 479.073ZM148.154 282.601V187.536L73.3287 145.284L0 187.536V282.601L73.3287 326.361L148.154 282.601ZM142.168 279.124V194.525L76.3217 233.034V317.633L142.168 279.124ZM70.3357 317.562V233.017L5.98602 194.615V279.16L70.3357 317.562ZM73.3585 152.219L8.91656 189.35L73.344 227.798L139.101 189.342L73.3585 152.219Z" fill="url(#paint0_linear_213:442)"/>
<defs>
<linearGradient id="paint0_linear_213:442" x1="256.022" y1="173.957" x2="20.2327" y2="169.288" gradientUnits="userSpaceOnUse">
<stop stop-color="#D4DCE3"/>
<stop offset="1" stop-color="#F5F7F8"/>
</linearGradient>
</defs>
</svg>
