<svg width="270" height="617" viewBox="0 0 270 617" fill="none" xmlns="http://www.w3.org/2000/svg">
<path fill-rule="evenodd" clip-rule="evenodd" d="M-125.077 137.74V42.6742L-50.2517 0.422913L23.0769 42.6742V137.74L-50.2517 181.5L-125.077 137.74ZM-119.091 134.263V49.6639L-53.2448 88.1729V172.772L-119.091 134.263ZM-47.2587 172.7V88.1552L17.0909 49.7534V134.298L-47.2587 172.7ZM-50.2815 7.35761L14.1604 44.4884L-50.267 82.9367L-116.024 44.48L-50.2815 7.35761ZM-372 282.601V187.536L-297.175 145.284L-223.846 187.536V282.601L-297.175 326.361L-372 282.601ZM-366.014 279.124V194.525L-300.168 233.034V317.633L-366.014 279.124ZM-294.182 317.562V233.017L-229.832 194.615V279.16L-294.182 317.562ZM-297.205 152.219L-232.763 189.35L-297.19 227.798L-362.947 189.342L-297.205 152.219ZM-289.692 427.463V332.397L-214.867 290.146L-141.538 332.397V427.463L-214.867 471.223L-289.692 427.463ZM-283.706 423.986V339.387L-217.86 377.896V462.495L-283.706 423.986ZM-211.874 462.423V377.878L-147.524 339.476V424.021L-211.874 462.423ZM-214.897 297.081L-150.455 334.212L-214.882 372.66L-280.639 334.203L-214.897 297.081ZM-372 477.259V572.324L-297.175 616.085L-223.846 572.324V477.259L-297.175 435.008L-372 477.259ZM-366.014 484.249V568.847L-300.168 607.357V522.758L-366.014 484.249ZM-294.182 522.74V607.285L-229.832 568.883V484.338L-294.182 522.74ZM-232.763 479.073L-297.205 441.942L-362.947 479.065L-297.19 517.521L-232.763 479.073ZM-289.692 42.6742V137.74L-214.867 181.5L-141.538 137.74V42.6742L-214.867 0.422913L-289.692 42.6742ZM-283.706 49.6639V134.263L-217.86 172.772V88.1729L-283.706 49.6639ZM-211.874 88.1552V172.7L-147.524 134.298V49.7534L-211.874 88.1552ZM-150.455 44.4884L-214.897 7.35761L-280.639 44.48L-214.882 82.9367L-150.455 44.4884ZM39.5386 137.74V42.6742L114.364 0.422913L187.692 42.6742V137.74L114.364 181.5L39.5386 137.74ZM45.5246 134.263V49.6639L111.371 88.1729V172.772L45.5246 134.263ZM117.357 172.7V88.1552L181.706 49.7534V134.298L117.357 172.7ZM114.334 7.35761L178.776 44.4884L114.348 82.9367L48.5918 44.48L114.334 7.35761ZM39.5386 332.397V427.463L114.364 471.223L187.692 427.463V332.397L114.364 290.146L39.5386 332.397ZM45.5246 339.387V423.986L111.371 462.495V377.896L45.5246 339.387ZM117.357 377.878V462.423L181.706 424.021V339.476L117.357 377.878ZM178.776 334.212L114.334 297.081L48.5918 334.203L114.348 372.66L178.776 334.212ZM-125.077 427.463V332.397L-50.2517 290.146L23.0769 332.397V427.463L-50.2517 471.223L-125.077 427.463ZM-119.091 423.986V339.387L-53.2448 377.896V462.495L-119.091 423.986ZM-47.2587 462.423V377.878L17.0909 339.476V424.021L-47.2587 462.423ZM-50.2815 297.081L14.1604 334.212L-50.267 372.66L-116.024 334.203L-50.2815 297.081ZM-207.384 187.536V282.601L-132.559 326.361L-59.2306 282.601V187.536L-132.559 145.284L-207.384 187.536ZM-201.398 194.525V279.124L-135.552 317.633V233.034L-201.398 194.525ZM-129.566 233.017V317.562L-65.2166 279.16V194.615L-129.566 233.017ZM-68.1472 189.35L-132.589 152.219L-198.331 189.342L-132.575 227.798L-68.1472 189.35ZM-207.384 572.324V477.259L-132.559 435.008L-59.2306 477.259V572.324L-132.559 616.085L-207.384 572.324ZM-201.398 568.847V484.249L-135.552 522.758V607.357L-201.398 568.847ZM-129.566 607.285V522.74L-65.2166 484.338V568.883L-129.566 607.285ZM-132.589 441.942L-68.1472 479.073L-132.575 517.521L-198.331 479.065L-132.589 441.942ZM-42.769 187.536V282.601L32.0562 326.361L105.385 282.601V187.536L32.0562 145.284L-42.769 187.536ZM-36.783 194.525V279.124L29.0632 317.633V233.034L-36.783 194.525ZM35.0492 233.017V317.562L99.3989 279.16V194.615L35.0492 233.017ZM96.4683 189.35L32.0264 152.219L-33.7157 189.342L32.0409 227.798L96.4683 189.35ZM-42.769 572.324V477.259L32.0562 435.008L105.385 477.259V572.324L32.0562 616.085L-42.769 572.324ZM-36.783 568.847V484.249L29.0632 522.758V607.357L-36.783 568.847ZM35.0492 607.285V522.74L99.3989 484.338V568.883L35.0492 607.285ZM32.0264 441.942L96.4683 479.073L32.0409 517.521L-33.7157 479.065L32.0264 441.942ZM121.846 477.259V572.324L196.671 616.085L270 572.324V477.259L196.671 435.008L121.846 477.259ZM127.832 484.249V568.847L193.678 607.357V522.758L127.832 484.249ZM199.664 522.74V607.285L264.014 568.883V484.338L199.664 522.74ZM261.083 479.073L196.642 441.942L130.899 479.065L196.656 517.521L261.083 479.073ZM121.846 282.601V187.536L196.671 145.284L270 187.536V282.601L196.671 326.361L121.846 282.601ZM127.832 279.124V194.525L193.678 233.034V317.633L127.832 279.124ZM199.664 317.562V233.017L264.014 194.615V279.16L199.664 317.562ZM196.642 152.219L261.083 189.35L196.656 227.798L130.899 189.342L196.642 152.219Z" fill="url(#paint0_linear_213:415)"/>
<defs>
<linearGradient id="paint0_linear_213:415" x1="13.9782" y1="173.957" x2="249.767" y2="169.288" gradientUnits="userSpaceOnUse">
<stop stop-color="#D4DCE3"/>
<stop offset="1" stop-color="#F5F7F8"/>
</linearGradient>
</defs>
</svg>
