<svg width="72" height="86" viewBox="0 0 72 86" fill="none" xmlns="http://www.w3.org/2000/svg">
<g clip-path="url(#clip0_230:671)">
<path fill-rule="evenodd" clip-rule="evenodd" d="M0.5 20.0667V65.2167L36.3586 86L71.5 65.2167V20.0667L36.3586 0L0.5 20.0667Z" fill="#D0E9FF"/>
<path d="M21.5828 48.1473L30.0351 45.2663V41.3271C28.0957 39.3899 26.88 36.6255 26.88 33.5613V32.7308L26.1396 32.6784C24.9776 32.5961 24.1013 31.6333 24.1013 30.4388V28.9447C24.1013 27.9708 24.682 27.1404 25.4907 26.8321V25.2094C25.4907 22.2977 26.4063 19.5759 28.069 17.5453C29.5101 15.7853 31.3912 14.7067 33.3053 14.5226C33.5846 13.6383 34.3633 13 35.2787 13H38.1964C39.1118 13 39.8906 13.6383 40.1698 14.5224C42.084 14.7064 43.965 15.785 45.4061 17.5451C47.0688 19.5757 47.9845 22.2975 47.9845 25.2092V26.8319C48.793 27.1402 49.3738 27.9706 49.3738 28.9445V30.4386C49.3738 31.6331 48.4976 32.5959 47.3355 32.6782L46.5951 32.7306V33.5611C46.5951 36.6254 45.3793 39.3897 43.44 41.3269V45.2661L51.8923 48.1471C55.7485 49.4614 59.21 51.0458 59.21 55.93V64H14.2651V61.0117H15.6544V62.5058H21.098V49.8921C17.4871 51.2238 15.6544 52.6481 15.6544 55.9301V61.3158C15.6544 61.3158 14.8076 61.3158 14.2651 61.3158C14.2651 61.0818 14.2651 55.9301 14.2651 55.9301C14.2651 51.0459 17.7266 49.4616 21.5828 48.1473ZM23.8767 48.9327L22.4873 49.4062V59.5176H23.8767V48.9327ZM50.9878 49.4063L49.5984 48.9328V59.5176H50.9878V49.4063ZM50.9878 61.0117H48.2091V48.4591L46.8197 47.9856V61.0117H37.4322V62.5058H50.9878V61.0117ZM45.4305 48.702L37.4322 56.8506V59.5176H45.4305V48.702ZM36.0429 56.8506L28.0447 48.702V59.5176H36.0429V56.8506ZM40.2804 16.04V20.8739H38.8911V15.2412C38.8911 14.8292 38.5795 14.4941 38.1964 14.4941H35.2787C34.8956 14.4941 34.5841 14.8292 34.5841 15.2412V20.8739H33.1947V16.04C30.0268 16.5027 26.88 20.0697 26.88 25.2092V26.7034H31.8054V25.9563C31.8054 24.7205 32.7402 23.7151 33.8894 23.7151H39.5857C40.7348 23.7151 41.6698 24.7204 41.6698 25.9563V26.7034H46.5951V25.2092C46.5951 20.0697 43.4483 16.5027 40.2804 16.04ZM33.1947 26.7034H40.2804V25.9563C40.2804 25.5444 39.9688 25.2092 39.5857 25.2092H33.8894C33.5064 25.2092 33.1947 25.5443 33.1947 25.9563V26.7034ZM45.2057 33.5612V32.829L42.0579 33.0519L41.9667 31.5609L47.2443 31.1874C47.6031 31.162 47.9845 30.8909 47.9845 30.4387V28.9446C47.9845 28.5327 47.6729 28.1975 47.2898 28.1975H26.1852C25.8022 28.1975 25.4906 28.5326 25.4906 28.9446V30.4387C25.4906 30.8909 25.8719 31.162 26.2307 31.1874L36.7376 31.9313L42.2731 31.5392L42.3643 33.0302L36.7376 33.4287L28.2694 32.8291V33.5613C28.2694 38.5829 32.0682 42.6681 36.7376 42.6681C41.4069 42.6681 45.2057 38.5828 45.2057 33.5612ZM36.7376 44.1623C34.7826 44.1623 32.9587 43.547 31.4245 42.4872V45.6494C32.1499 47.2534 34.2139 48.282 36.7376 48.282C39.2612 48.282 41.3252 47.2533 42.0506 45.6494V42.4872C40.5164 43.547 38.6926 44.1623 36.7376 44.1623ZM43.0887 46.7139C41.9997 48.5939 39.59 49.7762 36.7376 49.7762C33.8851 49.7762 31.4754 48.5939 30.3865 46.7139L28.6833 47.2944L36.7376 55.5002L44.7918 47.2944L43.0887 46.7139ZM57.8207 55.9301C57.8207 52.648 55.988 51.2238 52.3771 49.8921V62.5058H57.8207V55.9301ZM36.0429 62.5058V61.0117H26.6553V47.9856L25.2659 48.4591V61.0117H22.4872V62.5058H36.0429Z" fill="#0058AA"/>
</g>
<defs>
<clipPath id="clip0_230:671">
<rect width="71" height="86" fill="white" transform="matrix(-1 0 0 1 71.5 0)"/>
</clipPath>
</defs>
</svg>
